%TF.GenerationSoftware,KiCad,Pcbnew,8.0.8*%
%TF.CreationDate,2025-06-12T02:03:35+01:00*%
%TF.ProjectId,AutoDiming_Keychain,4175746f-4469-46d6-996e-675f4b657963,rev?*%
%TF.SameCoordinates,Original*%
%TF.FileFunction,Profile,NP*%
%FSLAX46Y46*%
G04 Gerber Fmt 4.6, Leading zero omitted, Abs format (unit mm)*
G04 Created by KiCad (PCBNEW 8.0.8) date 2025-06-12 02:03:35*
%MOMM*%
%LPD*%
G01*
G04 APERTURE LIST*
%TA.AperFunction,Profile*%
%ADD10C,1.000000*%
%TD*%
G04 APERTURE END LIST*
D10*
X41341269Y-27811844D02*
X41497433Y-27849308D01*
X41663614Y-27910297D01*
X41838831Y-27993191D01*
X42022101Y-28096369D01*
X42212442Y-28218209D01*
X42408872Y-28357092D01*
X42816071Y-28679500D01*
X43235842Y-29050628D01*
X43660328Y-29457509D01*
X44081674Y-29887178D01*
X44492023Y-30326667D01*
X44883518Y-30763011D01*
X45248303Y-31183244D01*
X45866319Y-31923511D01*
X46436153Y-32640200D01*
X52336690Y-32640200D01*
X52906690Y-31923511D01*
X53524892Y-31183244D01*
X54281408Y-30326667D01*
X54691888Y-29887178D01*
X55113373Y-29457509D01*
X55538004Y-29050628D01*
X55957922Y-28679500D01*
X56365270Y-28357092D01*
X56561774Y-28218209D01*
X56752189Y-28096369D01*
X56935532Y-27993191D01*
X57110821Y-27910297D01*
X57277075Y-27849308D01*
X57433309Y-27811844D01*
X57588640Y-27807486D01*
X57752529Y-27842953D01*
X57924089Y-27915642D01*
X58102437Y-28022952D01*
X58286688Y-28162278D01*
X58475958Y-28331019D01*
X58669362Y-28526571D01*
X58866016Y-28746333D01*
X59265534Y-29248074D01*
X59667436Y-29815421D01*
X60064645Y-30427552D01*
X60450086Y-31063645D01*
X60816682Y-31702882D01*
X61157358Y-32324439D01*
X61732640Y-33431234D01*
X62260798Y-34516551D01*
X62677757Y-34848129D01*
X63735861Y-35811441D01*
X64414980Y-36515269D01*
X65145952Y-37359357D01*
X65892631Y-38337813D01*
X66618872Y-39444746D01*
X67288531Y-40674264D01*
X67590847Y-41333152D01*
X67865463Y-42020477D01*
X68107861Y-42735502D01*
X68313523Y-43477492D01*
X68477931Y-44245710D01*
X68596566Y-45039419D01*
X68664912Y-45857883D01*
X68678448Y-46700366D01*
X68632659Y-47566131D01*
X68523024Y-48454442D01*
X68345027Y-49364562D01*
X68094149Y-50295755D01*
X67765872Y-51247285D01*
X67355678Y-52218415D01*
X66996181Y-52929762D01*
X66596996Y-53596182D01*
X66160697Y-54219157D01*
X65689862Y-54800165D01*
X65187066Y-55340689D01*
X64654885Y-55842208D01*
X64095895Y-56306203D01*
X63512672Y-56734154D01*
X62907792Y-57127541D01*
X62283830Y-57487846D01*
X61643364Y-57816549D01*
X60988968Y-58115130D01*
X60323219Y-58385069D01*
X59648693Y-58627848D01*
X58967965Y-58844946D01*
X58283612Y-59037844D01*
X58472996Y-59642952D01*
X61260795Y-65689637D01*
X62542018Y-68360848D01*
X63919233Y-71145453D01*
X65323579Y-73868239D01*
X66686198Y-76353995D01*
X66887613Y-76721806D01*
X67074752Y-77095258D01*
X67247803Y-77473824D01*
X67406954Y-77856976D01*
X67552394Y-78244188D01*
X67684310Y-78634932D01*
X67802891Y-79028680D01*
X67908326Y-79424907D01*
X68000802Y-79823083D01*
X68080508Y-80222683D01*
X68147631Y-80623180D01*
X68202361Y-81024044D01*
X68244885Y-81424751D01*
X68275392Y-81824771D01*
X68294070Y-82223579D01*
X68301106Y-82620647D01*
X68178448Y-83346683D01*
X68315491Y-83296220D01*
X68452697Y-83242290D01*
X68590093Y-83184574D01*
X68727702Y-83122757D01*
X68865549Y-83056522D01*
X69003659Y-82985551D01*
X69142056Y-82909529D01*
X69280766Y-82828138D01*
X69449769Y-82721953D01*
X69618543Y-82608839D01*
X69786920Y-82488880D01*
X69954730Y-82362161D01*
X70121803Y-82228765D01*
X70287970Y-82088778D01*
X70453060Y-81942283D01*
X70616904Y-81789365D01*
X70779332Y-81630110D01*
X70940176Y-81464600D01*
X71099264Y-81292921D01*
X71256427Y-81115157D01*
X71411496Y-80931393D01*
X71564300Y-80741713D01*
X71714671Y-80546202D01*
X71862439Y-80344944D01*
X72151162Y-79926530D01*
X72426931Y-79487310D01*
X72688950Y-79028573D01*
X72936423Y-78551611D01*
X73168554Y-78057714D01*
X73384549Y-77548172D01*
X73583611Y-77024277D01*
X73764945Y-76487319D01*
X73927755Y-75938588D01*
X74071246Y-75379375D01*
X74194622Y-74810971D01*
X74297088Y-74234666D01*
X74377848Y-73651751D01*
X74436106Y-73063516D01*
X74471068Y-72471253D01*
X74481937Y-71876252D01*
X74477760Y-71523791D01*
X74465163Y-71171098D01*
X74444044Y-70818359D01*
X74414301Y-70465764D01*
X74375834Y-70113500D01*
X74328541Y-69761756D01*
X74272320Y-69410719D01*
X74207070Y-69060579D01*
X74132690Y-68711522D01*
X74049079Y-68363738D01*
X73956134Y-68017415D01*
X73853755Y-67672741D01*
X73741840Y-67329903D01*
X73620289Y-66989091D01*
X73488998Y-66650492D01*
X73347868Y-66314295D01*
X73138902Y-65821603D01*
X72944822Y-65336975D01*
X72765433Y-64860301D01*
X72600538Y-64391469D01*
X72449940Y-63930371D01*
X72313442Y-63476895D01*
X72190848Y-63030931D01*
X72081962Y-62592369D01*
X71986586Y-62161099D01*
X71904525Y-61737010D01*
X71835581Y-61319992D01*
X71779559Y-60909935D01*
X71736261Y-60506729D01*
X71705491Y-60110263D01*
X71687052Y-59720427D01*
X71680748Y-59337111D01*
X71684371Y-59026499D01*
X71696403Y-58720562D01*
X71716635Y-58419414D01*
X71744856Y-58123170D01*
X71780857Y-57831942D01*
X71824429Y-57545845D01*
X71875362Y-57264994D01*
X71933446Y-56989502D01*
X71998471Y-56719484D01*
X72070228Y-56455053D01*
X72148508Y-56196324D01*
X72233099Y-55943411D01*
X72323794Y-55696427D01*
X72420381Y-55455488D01*
X72522652Y-55220706D01*
X72630397Y-54992197D01*
X72742716Y-54769897D01*
X72859560Y-54554240D01*
X72980593Y-54345182D01*
X73105483Y-54142677D01*
X73233896Y-53946680D01*
X73365499Y-53757146D01*
X73499958Y-53574031D01*
X73636939Y-53397289D01*
X73776108Y-53226874D01*
X73917133Y-53062743D01*
X74059680Y-52904850D01*
X74203415Y-52753149D01*
X74348005Y-52607597D01*
X74493116Y-52468147D01*
X74638414Y-52334755D01*
X74783566Y-52207376D01*
X74929282Y-52085799D01*
X75074104Y-51969627D01*
X75217834Y-51858745D01*
X75360272Y-51753040D01*
X75640473Y-51556697D01*
X75913110Y-51379680D01*
X76176585Y-51221071D01*
X76429301Y-51079952D01*
X76669662Y-50955405D01*
X76896071Y-50846513D01*
X77106929Y-50752356D01*
X77300640Y-50672017D01*
X77475607Y-50604579D01*
X77630233Y-50549122D01*
X77872073Y-50470483D01*
X78013382Y-50428756D01*
X78145237Y-50397411D01*
X78277100Y-50373039D01*
X78408770Y-50355523D01*
X78540044Y-50344744D01*
X78670720Y-50340585D01*
X78800595Y-50342928D01*
X78929466Y-50351656D01*
X79057131Y-50366650D01*
X79183387Y-50387794D01*
X79308032Y-50414970D01*
X79430864Y-50448060D01*
X79551680Y-50486946D01*
X79670278Y-50531511D01*
X79786454Y-50581637D01*
X79900007Y-50637207D01*
X80010733Y-50698103D01*
X80118432Y-50764206D01*
X80222899Y-50835401D01*
X80323933Y-50911568D01*
X80421330Y-50992591D01*
X80514890Y-51078352D01*
X80604408Y-51168732D01*
X80689682Y-51263615D01*
X80770511Y-51362883D01*
X80846691Y-51466418D01*
X80918020Y-51574103D01*
X80984296Y-51685820D01*
X81045315Y-51801450D01*
X81100876Y-51920878D01*
X81150776Y-52043984D01*
X81194813Y-52170652D01*
X81232783Y-52300764D01*
X81263802Y-52431165D01*
X81287984Y-52561557D01*
X81305445Y-52691745D01*
X81316299Y-52821535D01*
X81320661Y-52950733D01*
X81318647Y-53079144D01*
X81310369Y-53206573D01*
X81295944Y-53332826D01*
X81275487Y-53457709D01*
X81249111Y-53581027D01*
X81216931Y-53702586D01*
X81179064Y-53822191D01*
X81135622Y-53939648D01*
X81086721Y-54054762D01*
X81032476Y-54167340D01*
X80973001Y-54277185D01*
X80908411Y-54384104D01*
X80838821Y-54487903D01*
X80764346Y-54588387D01*
X80685100Y-54685362D01*
X80601199Y-54778633D01*
X80512756Y-54868005D01*
X80419887Y-54953284D01*
X80322707Y-55034277D01*
X80221329Y-55110787D01*
X80115870Y-55182621D01*
X80006443Y-55249585D01*
X79893164Y-55311484D01*
X79776147Y-55368123D01*
X79655507Y-55419308D01*
X79531358Y-55464844D01*
X79403816Y-55504538D01*
X79404681Y-55508010D01*
X79348994Y-55526860D01*
X79289590Y-55549152D01*
X79253339Y-55563576D01*
X79213081Y-55580269D01*
X79169084Y-55599292D01*
X79121619Y-55620710D01*
X79070952Y-55644583D01*
X79017354Y-55670976D01*
X78902032Y-55730489D01*
X78779102Y-55799754D01*
X78650353Y-55878799D01*
X78584355Y-55921999D01*
X78517573Y-55967656D01*
X78450229Y-56015774D01*
X78382547Y-56066356D01*
X78314752Y-56119406D01*
X78247066Y-56174928D01*
X78179712Y-56232926D01*
X78112915Y-56293404D01*
X78046897Y-56356365D01*
X77981883Y-56421814D01*
X77896340Y-56513310D01*
X77812764Y-56609353D01*
X77731358Y-56710303D01*
X77691531Y-56762730D01*
X77652321Y-56816519D01*
X77613753Y-56871715D01*
X77575853Y-56928363D01*
X77538646Y-56986508D01*
X77502156Y-57046195D01*
X77466409Y-57107469D01*
X77431430Y-57170375D01*
X77397243Y-57234959D01*
X77363875Y-57301265D01*
X77279920Y-57488257D01*
X77202002Y-57690574D01*
X77165786Y-57798097D01*
X77131656Y-57910192D01*
X77099803Y-58027107D01*
X77070418Y-58149088D01*
X77043695Y-58276383D01*
X77019826Y-58409239D01*
X76999001Y-58547903D01*
X76981414Y-58692621D01*
X76967256Y-58843642D01*
X76956719Y-59001211D01*
X76949996Y-59165577D01*
X76947278Y-59336985D01*
X76961097Y-59781270D01*
X77006602Y-60270723D01*
X77042524Y-60532689D01*
X77087910Y-60806308D01*
X77143277Y-61091700D01*
X77209139Y-61388985D01*
X77286010Y-61698284D01*
X77374405Y-62019718D01*
X77474839Y-62353405D01*
X77587826Y-62699468D01*
X77713881Y-63058025D01*
X77853520Y-63429197D01*
X78007256Y-63813105D01*
X78175604Y-64209868D01*
X78373065Y-64680787D01*
X78556434Y-65154152D01*
X78725899Y-65629673D01*
X78881644Y-66107063D01*
X79023859Y-66586030D01*
X79152727Y-67066287D01*
X79268437Y-67547543D01*
X79371175Y-68029511D01*
X79461128Y-68511899D01*
X79538481Y-68994420D01*
X79603422Y-69476784D01*
X79656137Y-69958702D01*
X79696813Y-70439885D01*
X79725636Y-70920043D01*
X79742793Y-71398887D01*
X79748471Y-71876128D01*
X79739072Y-72480027D01*
X79712096Y-73080534D01*
X79667840Y-73677217D01*
X79606602Y-74269642D01*
X79528678Y-74857377D01*
X79434365Y-75439990D01*
X79323960Y-76017047D01*
X79197761Y-76588115D01*
X79056064Y-77152763D01*
X78899166Y-77710557D01*
X78727365Y-78261064D01*
X78540958Y-78803852D01*
X78340241Y-79338488D01*
X78125512Y-79864539D01*
X77897068Y-80381573D01*
X77655205Y-80889156D01*
X77399209Y-81386184D01*
X77130113Y-81873391D01*
X76847976Y-82350175D01*
X76552857Y-82815932D01*
X76244815Y-83270060D01*
X75923909Y-83711955D01*
X75590198Y-84141015D01*
X75243741Y-84556637D01*
X74884598Y-84958218D01*
X74512826Y-85345154D01*
X74128486Y-85716843D01*
X73731637Y-86072682D01*
X73322337Y-86412068D01*
X72900646Y-86734398D01*
X72466623Y-87039069D01*
X72020326Y-87325478D01*
X71717418Y-87504407D01*
X71408671Y-87674206D01*
X71094309Y-87834546D01*
X70774559Y-87985096D01*
X70449647Y-88125525D01*
X70119800Y-88255503D01*
X69785244Y-88374700D01*
X69446204Y-88482784D01*
X69102908Y-88579426D01*
X68755580Y-88664294D01*
X68404448Y-88737060D01*
X68049738Y-88797391D01*
X67691675Y-88844957D01*
X67330486Y-88879429D01*
X66966398Y-88900475D01*
X66599635Y-88907766D01*
X66413504Y-89175385D01*
X66219114Y-89430106D01*
X66016643Y-89671325D01*
X65806267Y-89898441D01*
X65588163Y-90110851D01*
X65362509Y-90307952D01*
X65129481Y-90489141D01*
X64889256Y-90653816D01*
X64642011Y-90801375D01*
X64387924Y-90931214D01*
X64127170Y-91042731D01*
X63859927Y-91135324D01*
X63586373Y-91208389D01*
X63306683Y-91261325D01*
X63021034Y-91293528D01*
X62729605Y-91304396D01*
X36046459Y-91304396D01*
X35599569Y-91278981D01*
X35166280Y-91204130D01*
X34747318Y-91081937D01*
X34343407Y-90914495D01*
X33955272Y-90703897D01*
X33583639Y-90452237D01*
X33229233Y-90161609D01*
X32892777Y-89834104D01*
X32574998Y-89471818D01*
X32276621Y-89076843D01*
X31998370Y-88651272D01*
X31740970Y-88197199D01*
X31505146Y-87716717D01*
X31291624Y-87211920D01*
X30934384Y-86137751D01*
X30675049Y-84991440D01*
X30519419Y-83789734D01*
X30473295Y-82549378D01*
X30542477Y-81287120D01*
X30622119Y-80653011D01*
X30732763Y-80019706D01*
X30875133Y-79389299D01*
X31049955Y-78763883D01*
X31257953Y-78145551D01*
X31499852Y-77536397D01*
X31776377Y-76938514D01*
X32088254Y-76353995D01*
X32752072Y-75156636D01*
X33419732Y-73887136D01*
X34084794Y-72566110D01*
X34740819Y-71214170D01*
X36000000Y-68500000D01*
X37145759Y-65909530D01*
X38126581Y-63607666D01*
X38890949Y-61759309D01*
X39564263Y-60082740D01*
X39930255Y-58884426D01*
X39283403Y-58683272D01*
X38641585Y-58459231D01*
X38007002Y-58211050D01*
X37381859Y-57937479D01*
X36768356Y-57637264D01*
X36168697Y-57309154D01*
X35585083Y-56951898D01*
X35019718Y-56564242D01*
X34474804Y-56144936D01*
X33952543Y-55692728D01*
X33455137Y-55206365D01*
X32984790Y-54684595D01*
X32760452Y-54410042D01*
X32543704Y-54126168D01*
X32334821Y-53832815D01*
X32134080Y-53529829D01*
X31941755Y-53217053D01*
X31758122Y-52894329D01*
X31583455Y-52561502D01*
X31418031Y-52218415D01*
X31007840Y-51247285D01*
X30679571Y-50295755D01*
X30428704Y-49364563D01*
X30250723Y-48454442D01*
X30141108Y-47566132D01*
X30095342Y-46700367D01*
X30108905Y-45857884D01*
X30177280Y-45039420D01*
X30295947Y-44245710D01*
X30460389Y-43477493D01*
X30666087Y-42735503D01*
X30908522Y-42020477D01*
X31183177Y-41333152D01*
X31485533Y-40674265D01*
X31811071Y-40044550D01*
X32155273Y-39444746D01*
X32513621Y-38875588D01*
X32881595Y-38337813D01*
X33254679Y-37832157D01*
X33628353Y-37359357D01*
X34359398Y-36515269D01*
X35038583Y-35811441D01*
X35629761Y-35253764D01*
X36096786Y-34848129D01*
X36513782Y-34516551D01*
X37041713Y-33431216D01*
X37616796Y-32324406D01*
X37957376Y-31702842D01*
X38323888Y-31063599D01*
X38709264Y-30427500D01*
X39106434Y-29815366D01*
X39508330Y-29248019D01*
X39907882Y-28746281D01*
X40104570Y-28526522D01*
X40298021Y-28330973D01*
X40487352Y-28162237D01*
X40671678Y-28022916D01*
X40850117Y-27915614D01*
X41021784Y-27842933D01*
X41185796Y-27807475D01*
X41341269Y-27811844D01*
M02*
