%TF.GenerationSoftware,KiCad,Pcbnew,8.0.8*%
%TF.CreationDate,2025-06-12T02:03:33+01:00*%
%TF.ProjectId,AutoDiming_Keychain,4175746f-4469-46d6-996e-675f4b657963,rev?*%
%TF.SameCoordinates,Original*%
%TF.FileFunction,Drillmap*%
%TF.FilePolarity,Positive*%
%FSLAX45Y45*%
G04 Gerber Fmt 4.5, Leading zero omitted, Abs format (unit mm)*
G04 Created by KiCad (PCBNEW 8.0.8) date 2025-06-12 02:03:33*
%MOMM*%
%LPD*%
G01*
G04 APERTURE LIST*
%ADD10C,1.000000*%
%ADD11C,0.200000*%
%ADD12C,0.100000*%
%ADD13C,0.500000*%
G04 APERTURE END LIST*
D10*
X4134127Y-2781184D02*
X4149743Y-2784931D01*
X4166361Y-2791030D01*
X4183883Y-2799319D01*
X4202210Y-2809637D01*
X4221244Y-2821821D01*
X4240887Y-2835709D01*
X4281607Y-2867950D01*
X4323584Y-2905063D01*
X4366033Y-2945751D01*
X4408167Y-2988718D01*
X4449202Y-3032667D01*
X4488352Y-3076301D01*
X4524830Y-3118324D01*
X4586632Y-3192351D01*
X4643615Y-3264020D01*
X5233669Y-3264020D01*
X5290669Y-3192351D01*
X5352489Y-3118324D01*
X5428141Y-3032667D01*
X5469189Y-2988718D01*
X5511337Y-2945751D01*
X5553800Y-2905063D01*
X5595792Y-2867950D01*
X5636527Y-2835709D01*
X5656177Y-2821821D01*
X5675219Y-2809637D01*
X5693553Y-2799319D01*
X5711082Y-2791030D01*
X5727707Y-2784931D01*
X5743331Y-2781184D01*
X5758864Y-2780749D01*
X5775253Y-2784295D01*
X5792409Y-2791564D01*
X5810244Y-2802295D01*
X5828669Y-2816228D01*
X5847596Y-2833102D01*
X5866936Y-2852657D01*
X5886602Y-2874633D01*
X5926553Y-2924807D01*
X5966744Y-2981542D01*
X6006464Y-3042755D01*
X6045009Y-3106364D01*
X6081668Y-3170288D01*
X6115736Y-3232444D01*
X6173264Y-3343123D01*
X6226080Y-3451655D01*
X6267776Y-3484813D01*
X6373586Y-3581144D01*
X6441498Y-3651527D01*
X6514595Y-3735936D01*
X6589263Y-3833781D01*
X6661887Y-3944475D01*
X6728853Y-4067426D01*
X6759085Y-4133315D01*
X6786546Y-4202048D01*
X6810786Y-4273550D01*
X6831352Y-4347749D01*
X6847793Y-4424571D01*
X6859657Y-4503942D01*
X6866491Y-4585788D01*
X6867845Y-4670037D01*
X6863266Y-4756613D01*
X6852302Y-4845444D01*
X6834503Y-4936456D01*
X6809415Y-5029576D01*
X6776587Y-5124729D01*
X6735568Y-5221842D01*
X6699618Y-5292976D01*
X6659700Y-5359618D01*
X6616070Y-5421916D01*
X6568986Y-5480017D01*
X6518707Y-5534069D01*
X6465488Y-5584221D01*
X6409589Y-5630620D01*
X6351267Y-5673415D01*
X6290779Y-5712754D01*
X6228383Y-5748785D01*
X6164336Y-5781655D01*
X6098897Y-5811513D01*
X6032322Y-5838507D01*
X5964869Y-5862785D01*
X5896796Y-5884495D01*
X5828361Y-5903784D01*
X5847300Y-5964295D01*
X6126079Y-6568964D01*
X6254202Y-6836085D01*
X6391923Y-7114545D01*
X6532358Y-7386824D01*
X6668620Y-7635399D01*
X6688761Y-7672181D01*
X6707475Y-7709526D01*
X6724780Y-7747382D01*
X6740695Y-7785698D01*
X6755239Y-7824419D01*
X6768431Y-7863493D01*
X6780289Y-7902868D01*
X6790833Y-7942491D01*
X6800080Y-7982308D01*
X6808051Y-8022268D01*
X6814763Y-8062318D01*
X6820236Y-8102404D01*
X6824488Y-8142475D01*
X6827539Y-8182477D01*
X6829407Y-8222358D01*
X6830111Y-8262065D01*
X6817845Y-8334668D01*
X6831549Y-8329622D01*
X6845270Y-8324229D01*
X6859009Y-8318457D01*
X6872770Y-8312276D01*
X6886555Y-8305652D01*
X6900366Y-8298555D01*
X6914206Y-8290953D01*
X6928077Y-8282814D01*
X6944977Y-8272195D01*
X6961854Y-8260884D01*
X6978692Y-8248888D01*
X6995473Y-8236216D01*
X7012180Y-8222876D01*
X7028797Y-8208878D01*
X7045306Y-8194228D01*
X7061690Y-8178936D01*
X7077933Y-8163011D01*
X7094018Y-8146460D01*
X7109926Y-8129292D01*
X7125643Y-8111516D01*
X7141150Y-8093139D01*
X7156430Y-8074171D01*
X7171467Y-8054620D01*
X7186244Y-8034494D01*
X7215116Y-7992653D01*
X7242693Y-7948731D01*
X7268895Y-7902857D01*
X7293642Y-7855161D01*
X7316855Y-7805771D01*
X7338455Y-7754817D01*
X7358361Y-7702428D01*
X7376494Y-7648732D01*
X7392775Y-7593859D01*
X7407125Y-7537937D01*
X7419462Y-7481097D01*
X7429709Y-7423467D01*
X7437785Y-7365175D01*
X7443611Y-7306352D01*
X7447107Y-7247125D01*
X7448194Y-7187625D01*
X7447776Y-7152379D01*
X7446516Y-7117110D01*
X7444404Y-7081836D01*
X7441430Y-7046576D01*
X7437583Y-7011350D01*
X7432854Y-6976176D01*
X7427232Y-6941072D01*
X7420707Y-6906058D01*
X7413269Y-6871152D01*
X7404908Y-6836374D01*
X7395613Y-6801741D01*
X7385375Y-6767274D01*
X7374184Y-6732990D01*
X7362029Y-6698909D01*
X7348900Y-6665049D01*
X7334787Y-6631429D01*
X7313890Y-6582160D01*
X7294482Y-6533697D01*
X7276543Y-6486030D01*
X7260054Y-6439147D01*
X7244994Y-6393037D01*
X7231344Y-6347689D01*
X7219085Y-6303093D01*
X7208196Y-6259237D01*
X7198659Y-6216110D01*
X7190452Y-6173701D01*
X7183558Y-6131999D01*
X7177956Y-6090993D01*
X7173626Y-6050673D01*
X7170549Y-6011026D01*
X7168705Y-5972043D01*
X7168075Y-5933711D01*
X7168437Y-5902650D01*
X7169640Y-5872056D01*
X7171663Y-5841941D01*
X7174486Y-5812317D01*
X7178086Y-5783194D01*
X7182443Y-5754584D01*
X7187536Y-5726499D01*
X7193345Y-5698950D01*
X7199847Y-5671948D01*
X7207023Y-5645505D01*
X7214851Y-5619632D01*
X7223310Y-5594341D01*
X7232379Y-5569643D01*
X7242038Y-5545549D01*
X7252265Y-5522071D01*
X7263040Y-5499220D01*
X7274272Y-5476990D01*
X7285956Y-5455424D01*
X7298059Y-5434518D01*
X7310548Y-5414268D01*
X7323390Y-5394668D01*
X7336550Y-5375715D01*
X7349996Y-5357403D01*
X7363694Y-5339729D01*
X7377611Y-5322687D01*
X7391713Y-5306274D01*
X7405968Y-5290485D01*
X7420341Y-5275315D01*
X7434800Y-5260760D01*
X7449312Y-5246815D01*
X7463841Y-5233476D01*
X7478357Y-5220738D01*
X7492928Y-5208580D01*
X7507410Y-5196963D01*
X7521783Y-5185875D01*
X7536027Y-5175304D01*
X7564047Y-5155670D01*
X7591311Y-5137968D01*
X7617658Y-5122107D01*
X7642930Y-5107995D01*
X7666966Y-5095541D01*
X7689607Y-5084651D01*
X7710693Y-5075236D01*
X7730064Y-5067202D01*
X7747561Y-5060458D01*
X7763023Y-5054912D01*
X7787207Y-5047048D01*
X7801338Y-5042876D01*
X7814524Y-5039741D01*
X7827710Y-5037304D01*
X7840877Y-5035552D01*
X7854004Y-5034474D01*
X7867072Y-5034059D01*
X7880059Y-5034293D01*
X7892947Y-5035166D01*
X7905713Y-5036665D01*
X7918339Y-5038779D01*
X7930803Y-5041497D01*
X7943086Y-5044806D01*
X7955168Y-5048695D01*
X7967028Y-5053151D01*
X7978645Y-5058164D01*
X7990001Y-5063721D01*
X8001073Y-5069810D01*
X8011843Y-5076421D01*
X8022290Y-5083540D01*
X8032393Y-5091157D01*
X8042133Y-5099259D01*
X8051489Y-5107835D01*
X8060441Y-5116873D01*
X8068968Y-5126362D01*
X8077051Y-5136288D01*
X8084669Y-5146642D01*
X8091802Y-5157410D01*
X8098430Y-5168582D01*
X8104531Y-5180145D01*
X8110088Y-5192088D01*
X8115078Y-5204398D01*
X8119481Y-5217065D01*
X8123278Y-5230076D01*
X8126380Y-5243117D01*
X8128798Y-5256156D01*
X8130544Y-5269175D01*
X8131630Y-5282154D01*
X8132066Y-5295073D01*
X8131865Y-5307914D01*
X8131037Y-5320657D01*
X8129594Y-5333283D01*
X8127549Y-5345771D01*
X8124911Y-5358103D01*
X8121693Y-5370259D01*
X8117906Y-5382219D01*
X8113562Y-5393965D01*
X8108672Y-5405476D01*
X8103248Y-5416734D01*
X8097300Y-5427719D01*
X8090841Y-5438410D01*
X8083882Y-5448790D01*
X8076435Y-5458839D01*
X8068510Y-5468536D01*
X8060120Y-5477863D01*
X8051276Y-5486801D01*
X8041989Y-5495328D01*
X8032271Y-5503428D01*
X8022133Y-5511079D01*
X8011587Y-5518262D01*
X8000644Y-5524959D01*
X7989316Y-5531148D01*
X7977615Y-5536812D01*
X7965551Y-5541931D01*
X7953136Y-5546484D01*
X7940382Y-5550454D01*
X7940468Y-5550801D01*
X7934899Y-5552686D01*
X7928959Y-5554915D01*
X7925334Y-5556358D01*
X7921308Y-5558027D01*
X7916908Y-5559929D01*
X7912162Y-5562071D01*
X7907095Y-5564458D01*
X7901735Y-5567098D01*
X7890203Y-5573049D01*
X7877910Y-5579975D01*
X7865035Y-5587880D01*
X7858435Y-5592200D01*
X7851757Y-5596766D01*
X7845023Y-5601577D01*
X7838255Y-5606636D01*
X7831475Y-5611941D01*
X7824707Y-5617493D01*
X7817971Y-5623293D01*
X7811291Y-5629340D01*
X7804690Y-5635636D01*
X7798188Y-5642181D01*
X7789634Y-5651331D01*
X7781276Y-5660935D01*
X7773136Y-5671030D01*
X7769153Y-5676273D01*
X7765232Y-5681652D01*
X7761375Y-5687171D01*
X7757585Y-5692836D01*
X7753865Y-5698651D01*
X7750216Y-5704619D01*
X7746641Y-5710747D01*
X7743143Y-5717037D01*
X7739724Y-5723496D01*
X7736387Y-5730126D01*
X7727992Y-5748826D01*
X7720200Y-5769057D01*
X7716579Y-5779810D01*
X7713166Y-5791019D01*
X7709980Y-5802711D01*
X7707042Y-5814909D01*
X7704369Y-5827638D01*
X7701983Y-5840924D01*
X7699900Y-5854790D01*
X7698141Y-5869262D01*
X7696726Y-5884364D01*
X7695672Y-5900121D01*
X7695000Y-5916558D01*
X7694728Y-5933698D01*
X7696110Y-5978127D01*
X7700660Y-6027072D01*
X7704252Y-6053269D01*
X7708791Y-6080631D01*
X7714328Y-6109170D01*
X7720914Y-6138898D01*
X7728601Y-6169828D01*
X7737440Y-6201972D01*
X7747484Y-6235340D01*
X7758783Y-6269947D01*
X7771388Y-6305802D01*
X7785352Y-6342920D01*
X7800726Y-6381310D01*
X7817560Y-6420987D01*
X7837306Y-6468079D01*
X7855643Y-6515415D01*
X7872590Y-6562967D01*
X7888164Y-6610706D01*
X7902386Y-6658603D01*
X7915273Y-6706629D01*
X7926844Y-6754754D01*
X7937117Y-6802951D01*
X7946113Y-6851190D01*
X7953848Y-6899442D01*
X7960342Y-6947678D01*
X7965614Y-6995870D01*
X7969681Y-7043988D01*
X7972564Y-7092004D01*
X7974279Y-7139889D01*
X7974847Y-7187613D01*
X7973907Y-7248003D01*
X7971210Y-7308053D01*
X7966784Y-7367722D01*
X7960660Y-7426964D01*
X7952868Y-7485738D01*
X7943436Y-7543999D01*
X7932396Y-7601705D01*
X7919776Y-7658811D01*
X7905606Y-7715276D01*
X7889917Y-7771056D01*
X7872736Y-7826106D01*
X7854096Y-7880385D01*
X7834024Y-7933849D01*
X7812551Y-7986454D01*
X7789707Y-8038157D01*
X7765520Y-8088916D01*
X7739921Y-8138618D01*
X7713011Y-8187339D01*
X7684798Y-8235017D01*
X7655286Y-8281593D01*
X7624481Y-8327006D01*
X7592391Y-8371195D01*
X7559020Y-8414102D01*
X7524374Y-8455664D01*
X7488460Y-8495822D01*
X7451283Y-8534515D01*
X7412849Y-8571684D01*
X7373164Y-8607268D01*
X7332234Y-8641207D01*
X7290065Y-8673440D01*
X7246662Y-8703907D01*
X7202033Y-8732548D01*
X7171742Y-8750441D01*
X7140867Y-8767421D01*
X7109431Y-8783455D01*
X7077456Y-8798510D01*
X7044965Y-8812553D01*
X7011980Y-8825550D01*
X6978524Y-8837470D01*
X6944620Y-8848278D01*
X6910291Y-8857943D01*
X6875558Y-8866429D01*
X6840445Y-8873706D01*
X6804974Y-8879739D01*
X6769167Y-8884496D01*
X6733049Y-8887943D01*
X6696640Y-8890048D01*
X6659963Y-8890777D01*
X6641350Y-8917539D01*
X6621911Y-8943011D01*
X6601664Y-8967133D01*
X6580627Y-8989844D01*
X6558816Y-9011085D01*
X6536251Y-9030795D01*
X6512948Y-9048914D01*
X6488926Y-9065382D01*
X6464201Y-9080138D01*
X6438792Y-9093121D01*
X6412717Y-9104273D01*
X6385993Y-9113532D01*
X6358637Y-9120839D01*
X6330668Y-9126133D01*
X6302103Y-9129353D01*
X6272960Y-9130440D01*
X3604646Y-9130440D01*
X3559957Y-9127898D01*
X3516628Y-9120413D01*
X3474732Y-9108194D01*
X3434341Y-9091450D01*
X3395527Y-9070390D01*
X3358364Y-9045224D01*
X3322923Y-9016161D01*
X3289278Y-8983410D01*
X3257500Y-8947182D01*
X3227662Y-8907684D01*
X3199837Y-8865127D01*
X3174097Y-8819720D01*
X3150515Y-8771672D01*
X3129162Y-8721192D01*
X3093438Y-8613775D01*
X3067505Y-8499144D01*
X3051942Y-8378973D01*
X3047329Y-8254938D01*
X3054248Y-8128712D01*
X3062212Y-8065301D01*
X3073276Y-8001971D01*
X3087513Y-7938930D01*
X3104995Y-7876388D01*
X3125795Y-7814555D01*
X3149985Y-7753640D01*
X3177638Y-7693851D01*
X3208825Y-7635399D01*
X3275207Y-7515664D01*
X3341973Y-7388714D01*
X3408479Y-7256611D01*
X3474082Y-7121417D01*
X3600000Y-6850000D01*
X3714576Y-6590953D01*
X3812658Y-6360767D01*
X3889095Y-6175931D01*
X3956426Y-6008274D01*
X3993025Y-5888443D01*
X3928340Y-5868327D01*
X3864158Y-5845923D01*
X3800700Y-5821105D01*
X3738186Y-5793748D01*
X3676836Y-5763726D01*
X3616870Y-5730915D01*
X3558508Y-5695190D01*
X3501972Y-5656424D01*
X3447480Y-5614494D01*
X3395254Y-5569273D01*
X3345514Y-5520637D01*
X3298479Y-5468460D01*
X3276045Y-5441004D01*
X3254370Y-5412617D01*
X3233482Y-5383282D01*
X3213408Y-5352983D01*
X3194175Y-5321705D01*
X3175812Y-5289433D01*
X3158345Y-5256150D01*
X3141803Y-5221842D01*
X3100784Y-5124729D01*
X3067957Y-5029576D01*
X3042870Y-4936456D01*
X3025072Y-4845444D01*
X3014111Y-4756613D01*
X3009534Y-4670037D01*
X3010890Y-4585788D01*
X3017728Y-4503942D01*
X3029595Y-4424571D01*
X3046039Y-4347749D01*
X3066609Y-4273550D01*
X3090852Y-4202048D01*
X3118318Y-4133315D01*
X3148553Y-4067426D01*
X3181107Y-4004455D01*
X3215527Y-3944475D01*
X3251362Y-3887559D01*
X3288159Y-3833781D01*
X3325468Y-3783216D01*
X3362835Y-3735936D01*
X3435940Y-3651527D01*
X3503858Y-3581144D01*
X3562976Y-3525376D01*
X3609679Y-3484813D01*
X3651378Y-3451655D01*
X3704171Y-3343122D01*
X3761680Y-3232441D01*
X3795738Y-3170284D01*
X3832389Y-3106360D01*
X3870926Y-3042750D01*
X3910643Y-2981537D01*
X3950833Y-2924802D01*
X3990788Y-2874628D01*
X4010457Y-2852652D01*
X4029802Y-2833097D01*
X4048735Y-2816224D01*
X4067168Y-2802292D01*
X4085012Y-2791561D01*
X4102178Y-2784293D01*
X4118580Y-2780748D01*
X4134127Y-2781184D01*
D11*
D12*
X4785500Y-4248500D02*
X4860500Y-4323500D01*
X4860500Y-4248500D02*
X4785500Y-4323500D01*
X4912500Y-4248500D02*
X4987500Y-4323500D01*
X4987500Y-4248500D02*
X4912500Y-4323500D01*
X5039500Y-4248500D02*
X5114500Y-4323500D01*
X5114500Y-4248500D02*
X5039500Y-4323500D01*
X4440000Y-5469000D02*
G75*
G02*
X4360000Y-5469000I-40000J0D01*
G01*
X4360000Y-5469000D02*
G75*
G02*
X4440000Y-5469000I40000J0D01*
G01*
X4440000Y-6231000D02*
G75*
G02*
X4360000Y-6231000I-40000J0D01*
G01*
X4360000Y-6231000D02*
G75*
G02*
X4440000Y-6231000I40000J0D01*
G01*
X4800000Y-5000000D02*
G75*
G02*
X4720000Y-5000000I-40000J0D01*
G01*
X4720000Y-5000000D02*
G75*
G02*
X4800000Y-5000000I40000J0D01*
G01*
X5140000Y-5000000D02*
G75*
G02*
X5060000Y-5000000I-40000J0D01*
G01*
X5060000Y-5000000D02*
G75*
G02*
X5140000Y-5000000I40000J0D01*
G01*
X5490000Y-5400000D02*
G75*
G02*
X5410000Y-5400000I-40000J0D01*
G01*
X5410000Y-5400000D02*
G75*
G02*
X5490000Y-5400000I40000J0D01*
G01*
X5490000Y-6162000D02*
G75*
G02*
X5410000Y-6162000I-40000J0D01*
G01*
X5410000Y-6162000D02*
G75*
G02*
X5490000Y-6162000I40000J0D01*
G01*
X3796000Y-4155000D02*
X3796000Y-4245000D01*
X3751000Y-4200000D02*
X3841000Y-4200000D01*
X4050000Y-4155000D02*
X4050000Y-4245000D01*
X4005000Y-4200000D02*
X4095000Y-4200000D01*
X5822500Y-4105000D02*
X5822500Y-4195000D01*
X5777500Y-4150000D02*
X5867500Y-4150000D01*
X6076500Y-4105000D02*
X6076500Y-4195000D01*
X6031500Y-4150000D02*
X6121500Y-4150000D01*
D13*
X5126778Y-3776778D02*
X5126778Y-3423222D01*
X4773222Y-3423222D01*
X4773222Y-3776778D01*
X5126778Y-3776778D01*
D11*
X3220311Y-9491923D02*
X3220311Y-9291923D01*
X3220311Y-9291923D02*
X3267930Y-9291923D01*
X3267930Y-9291923D02*
X3296501Y-9301447D01*
X3296501Y-9301447D02*
X3315549Y-9320495D01*
X3315549Y-9320495D02*
X3325073Y-9339542D01*
X3325073Y-9339542D02*
X3334597Y-9377638D01*
X3334597Y-9377638D02*
X3334597Y-9406209D01*
X3334597Y-9406209D02*
X3325073Y-9444304D01*
X3325073Y-9444304D02*
X3315549Y-9463352D01*
X3315549Y-9463352D02*
X3296501Y-9482400D01*
X3296501Y-9482400D02*
X3267930Y-9491923D01*
X3267930Y-9491923D02*
X3220311Y-9491923D01*
X3420311Y-9491923D02*
X3420311Y-9358590D01*
X3420311Y-9396685D02*
X3429835Y-9377638D01*
X3429835Y-9377638D02*
X3439359Y-9368114D01*
X3439359Y-9368114D02*
X3458406Y-9358590D01*
X3458406Y-9358590D02*
X3477454Y-9358590D01*
X3544120Y-9491923D02*
X3544120Y-9358590D01*
X3544120Y-9291923D02*
X3534597Y-9301447D01*
X3534597Y-9301447D02*
X3544120Y-9310971D01*
X3544120Y-9310971D02*
X3553644Y-9301447D01*
X3553644Y-9301447D02*
X3544120Y-9291923D01*
X3544120Y-9291923D02*
X3544120Y-9310971D01*
X3667930Y-9491923D02*
X3648882Y-9482400D01*
X3648882Y-9482400D02*
X3639359Y-9463352D01*
X3639359Y-9463352D02*
X3639359Y-9291923D01*
X3772692Y-9491923D02*
X3753644Y-9482400D01*
X3753644Y-9482400D02*
X3744120Y-9463352D01*
X3744120Y-9463352D02*
X3744120Y-9291923D01*
X4001263Y-9491923D02*
X4001263Y-9291923D01*
X4001263Y-9291923D02*
X4067930Y-9434781D01*
X4067930Y-9434781D02*
X4134597Y-9291923D01*
X4134597Y-9291923D02*
X4134597Y-9491923D01*
X4315549Y-9491923D02*
X4315549Y-9387162D01*
X4315549Y-9387162D02*
X4306025Y-9368114D01*
X4306025Y-9368114D02*
X4286978Y-9358590D01*
X4286978Y-9358590D02*
X4248882Y-9358590D01*
X4248882Y-9358590D02*
X4229835Y-9368114D01*
X4315549Y-9482400D02*
X4296502Y-9491923D01*
X4296502Y-9491923D02*
X4248882Y-9491923D01*
X4248882Y-9491923D02*
X4229835Y-9482400D01*
X4229835Y-9482400D02*
X4220311Y-9463352D01*
X4220311Y-9463352D02*
X4220311Y-9444304D01*
X4220311Y-9444304D02*
X4229835Y-9425257D01*
X4229835Y-9425257D02*
X4248882Y-9415733D01*
X4248882Y-9415733D02*
X4296502Y-9415733D01*
X4296502Y-9415733D02*
X4315549Y-9406209D01*
X4410787Y-9358590D02*
X4410787Y-9558590D01*
X4410787Y-9368114D02*
X4429835Y-9358590D01*
X4429835Y-9358590D02*
X4467930Y-9358590D01*
X4467930Y-9358590D02*
X4486978Y-9368114D01*
X4486978Y-9368114D02*
X4496502Y-9377638D01*
X4496502Y-9377638D02*
X4506025Y-9396685D01*
X4506025Y-9396685D02*
X4506025Y-9453828D01*
X4506025Y-9453828D02*
X4496502Y-9472876D01*
X4496502Y-9472876D02*
X4486978Y-9482400D01*
X4486978Y-9482400D02*
X4467930Y-9491923D01*
X4467930Y-9491923D02*
X4429835Y-9491923D01*
X4429835Y-9491923D02*
X4410787Y-9482400D01*
X4591740Y-9472876D02*
X4601263Y-9482400D01*
X4601263Y-9482400D02*
X4591740Y-9491923D01*
X4591740Y-9491923D02*
X4582216Y-9482400D01*
X4582216Y-9482400D02*
X4591740Y-9472876D01*
X4591740Y-9472876D02*
X4591740Y-9491923D01*
X4591740Y-9368114D02*
X4601263Y-9377638D01*
X4601263Y-9377638D02*
X4591740Y-9387162D01*
X4591740Y-9387162D02*
X4582216Y-9377638D01*
X4582216Y-9377638D02*
X4591740Y-9368114D01*
X4591740Y-9368114D02*
X4591740Y-9387162D01*
D12*
X2884534Y-9782940D02*
X2959534Y-9857940D01*
X2959534Y-9782940D02*
X2884534Y-9857940D01*
D11*
X3258406Y-9711923D02*
X3277454Y-9711923D01*
X3277454Y-9711923D02*
X3296501Y-9721447D01*
X3296501Y-9721447D02*
X3306025Y-9730971D01*
X3306025Y-9730971D02*
X3315549Y-9750019D01*
X3315549Y-9750019D02*
X3325073Y-9788114D01*
X3325073Y-9788114D02*
X3325073Y-9835733D01*
X3325073Y-9835733D02*
X3315549Y-9873828D01*
X3315549Y-9873828D02*
X3306025Y-9892876D01*
X3306025Y-9892876D02*
X3296501Y-9902400D01*
X3296501Y-9902400D02*
X3277454Y-9911923D01*
X3277454Y-9911923D02*
X3258406Y-9911923D01*
X3258406Y-9911923D02*
X3239359Y-9902400D01*
X3239359Y-9902400D02*
X3229835Y-9892876D01*
X3229835Y-9892876D02*
X3220311Y-9873828D01*
X3220311Y-9873828D02*
X3210787Y-9835733D01*
X3210787Y-9835733D02*
X3210787Y-9788114D01*
X3210787Y-9788114D02*
X3220311Y-9750019D01*
X3220311Y-9750019D02*
X3229835Y-9730971D01*
X3229835Y-9730971D02*
X3239359Y-9721447D01*
X3239359Y-9721447D02*
X3258406Y-9711923D01*
X3410787Y-9892876D02*
X3420311Y-9902400D01*
X3420311Y-9902400D02*
X3410787Y-9911923D01*
X3410787Y-9911923D02*
X3401263Y-9902400D01*
X3401263Y-9902400D02*
X3410787Y-9892876D01*
X3410787Y-9892876D02*
X3410787Y-9911923D01*
X3486978Y-9711923D02*
X3620311Y-9711923D01*
X3620311Y-9711923D02*
X3534597Y-9911923D01*
X3791740Y-9711923D02*
X3696501Y-9711923D01*
X3696501Y-9711923D02*
X3686978Y-9807162D01*
X3686978Y-9807162D02*
X3696501Y-9797638D01*
X3696501Y-9797638D02*
X3715549Y-9788114D01*
X3715549Y-9788114D02*
X3763168Y-9788114D01*
X3763168Y-9788114D02*
X3782216Y-9797638D01*
X3782216Y-9797638D02*
X3791740Y-9807162D01*
X3791740Y-9807162D02*
X3801263Y-9826209D01*
X3801263Y-9826209D02*
X3801263Y-9873828D01*
X3801263Y-9873828D02*
X3791740Y-9892876D01*
X3791740Y-9892876D02*
X3782216Y-9902400D01*
X3782216Y-9902400D02*
X3763168Y-9911923D01*
X3763168Y-9911923D02*
X3715549Y-9911923D01*
X3715549Y-9911923D02*
X3696501Y-9902400D01*
X3696501Y-9902400D02*
X3686978Y-9892876D01*
X3925073Y-9711923D02*
X3944121Y-9711923D01*
X3944121Y-9711923D02*
X3963168Y-9721447D01*
X3963168Y-9721447D02*
X3972692Y-9730971D01*
X3972692Y-9730971D02*
X3982216Y-9750019D01*
X3982216Y-9750019D02*
X3991740Y-9788114D01*
X3991740Y-9788114D02*
X3991740Y-9835733D01*
X3991740Y-9835733D02*
X3982216Y-9873828D01*
X3982216Y-9873828D02*
X3972692Y-9892876D01*
X3972692Y-9892876D02*
X3963168Y-9902400D01*
X3963168Y-9902400D02*
X3944121Y-9911923D01*
X3944121Y-9911923D02*
X3925073Y-9911923D01*
X3925073Y-9911923D02*
X3906025Y-9902400D01*
X3906025Y-9902400D02*
X3896501Y-9892876D01*
X3896501Y-9892876D02*
X3886978Y-9873828D01*
X3886978Y-9873828D02*
X3877454Y-9835733D01*
X3877454Y-9835733D02*
X3877454Y-9788114D01*
X3877454Y-9788114D02*
X3886978Y-9750019D01*
X3886978Y-9750019D02*
X3896501Y-9730971D01*
X3896501Y-9730971D02*
X3906025Y-9721447D01*
X3906025Y-9721447D02*
X3925073Y-9711923D01*
X4077454Y-9911923D02*
X4077454Y-9778590D01*
X4077454Y-9797638D02*
X4086978Y-9788114D01*
X4086978Y-9788114D02*
X4106025Y-9778590D01*
X4106025Y-9778590D02*
X4134597Y-9778590D01*
X4134597Y-9778590D02*
X4153644Y-9788114D01*
X4153644Y-9788114D02*
X4163168Y-9807162D01*
X4163168Y-9807162D02*
X4163168Y-9911923D01*
X4163168Y-9807162D02*
X4172692Y-9788114D01*
X4172692Y-9788114D02*
X4191740Y-9778590D01*
X4191740Y-9778590D02*
X4220311Y-9778590D01*
X4220311Y-9778590D02*
X4239359Y-9788114D01*
X4239359Y-9788114D02*
X4248883Y-9807162D01*
X4248883Y-9807162D02*
X4248883Y-9911923D01*
X4344121Y-9911923D02*
X4344121Y-9778590D01*
X4344121Y-9797638D02*
X4353644Y-9788114D01*
X4353644Y-9788114D02*
X4372692Y-9778590D01*
X4372692Y-9778590D02*
X4401264Y-9778590D01*
X4401264Y-9778590D02*
X4420311Y-9788114D01*
X4420311Y-9788114D02*
X4429835Y-9807162D01*
X4429835Y-9807162D02*
X4429835Y-9911923D01*
X4429835Y-9807162D02*
X4439359Y-9788114D01*
X4439359Y-9788114D02*
X4458406Y-9778590D01*
X4458406Y-9778590D02*
X4486978Y-9778590D01*
X4486978Y-9778590D02*
X4506025Y-9788114D01*
X4506025Y-9788114D02*
X4515549Y-9807162D01*
X4515549Y-9807162D02*
X4515549Y-9911923D01*
X4906025Y-9702400D02*
X4734597Y-9959542D01*
X5163168Y-9711923D02*
X5182216Y-9711923D01*
X5182216Y-9711923D02*
X5201264Y-9721447D01*
X5201264Y-9721447D02*
X5210787Y-9730971D01*
X5210787Y-9730971D02*
X5220311Y-9750019D01*
X5220311Y-9750019D02*
X5229835Y-9788114D01*
X5229835Y-9788114D02*
X5229835Y-9835733D01*
X5229835Y-9835733D02*
X5220311Y-9873828D01*
X5220311Y-9873828D02*
X5210787Y-9892876D01*
X5210787Y-9892876D02*
X5201264Y-9902400D01*
X5201264Y-9902400D02*
X5182216Y-9911923D01*
X5182216Y-9911923D02*
X5163168Y-9911923D01*
X5163168Y-9911923D02*
X5144121Y-9902400D01*
X5144121Y-9902400D02*
X5134597Y-9892876D01*
X5134597Y-9892876D02*
X5125073Y-9873828D01*
X5125073Y-9873828D02*
X5115549Y-9835733D01*
X5115549Y-9835733D02*
X5115549Y-9788114D01*
X5115549Y-9788114D02*
X5125073Y-9750019D01*
X5125073Y-9750019D02*
X5134597Y-9730971D01*
X5134597Y-9730971D02*
X5144121Y-9721447D01*
X5144121Y-9721447D02*
X5163168Y-9711923D01*
X5315549Y-9892876D02*
X5325073Y-9902400D01*
X5325073Y-9902400D02*
X5315549Y-9911923D01*
X5315549Y-9911923D02*
X5306026Y-9902400D01*
X5306026Y-9902400D02*
X5315549Y-9892876D01*
X5315549Y-9892876D02*
X5315549Y-9911923D01*
X5448883Y-9711923D02*
X5467930Y-9711923D01*
X5467930Y-9711923D02*
X5486978Y-9721447D01*
X5486978Y-9721447D02*
X5496502Y-9730971D01*
X5496502Y-9730971D02*
X5506026Y-9750019D01*
X5506026Y-9750019D02*
X5515549Y-9788114D01*
X5515549Y-9788114D02*
X5515549Y-9835733D01*
X5515549Y-9835733D02*
X5506026Y-9873828D01*
X5506026Y-9873828D02*
X5496502Y-9892876D01*
X5496502Y-9892876D02*
X5486978Y-9902400D01*
X5486978Y-9902400D02*
X5467930Y-9911923D01*
X5467930Y-9911923D02*
X5448883Y-9911923D01*
X5448883Y-9911923D02*
X5429835Y-9902400D01*
X5429835Y-9902400D02*
X5420311Y-9892876D01*
X5420311Y-9892876D02*
X5410787Y-9873828D01*
X5410787Y-9873828D02*
X5401264Y-9835733D01*
X5401264Y-9835733D02*
X5401264Y-9788114D01*
X5401264Y-9788114D02*
X5410787Y-9750019D01*
X5410787Y-9750019D02*
X5420311Y-9730971D01*
X5420311Y-9730971D02*
X5429835Y-9721447D01*
X5429835Y-9721447D02*
X5448883Y-9711923D01*
X5591740Y-9730971D02*
X5601264Y-9721447D01*
X5601264Y-9721447D02*
X5620311Y-9711923D01*
X5620311Y-9711923D02*
X5667930Y-9711923D01*
X5667930Y-9711923D02*
X5686978Y-9721447D01*
X5686978Y-9721447D02*
X5696502Y-9730971D01*
X5696502Y-9730971D02*
X5706025Y-9750019D01*
X5706025Y-9750019D02*
X5706025Y-9769066D01*
X5706025Y-9769066D02*
X5696502Y-9797638D01*
X5696502Y-9797638D02*
X5582216Y-9911923D01*
X5582216Y-9911923D02*
X5706025Y-9911923D01*
X5801264Y-9911923D02*
X5839359Y-9911923D01*
X5839359Y-9911923D02*
X5858406Y-9902400D01*
X5858406Y-9902400D02*
X5867930Y-9892876D01*
X5867930Y-9892876D02*
X5886978Y-9864304D01*
X5886978Y-9864304D02*
X5896502Y-9826209D01*
X5896502Y-9826209D02*
X5896502Y-9750019D01*
X5896502Y-9750019D02*
X5886978Y-9730971D01*
X5886978Y-9730971D02*
X5877454Y-9721447D01*
X5877454Y-9721447D02*
X5858406Y-9711923D01*
X5858406Y-9711923D02*
X5820311Y-9711923D01*
X5820311Y-9711923D02*
X5801264Y-9721447D01*
X5801264Y-9721447D02*
X5791740Y-9730971D01*
X5791740Y-9730971D02*
X5782216Y-9750019D01*
X5782216Y-9750019D02*
X5782216Y-9797638D01*
X5782216Y-9797638D02*
X5791740Y-9816685D01*
X5791740Y-9816685D02*
X5801264Y-9826209D01*
X5801264Y-9826209D02*
X5820311Y-9835733D01*
X5820311Y-9835733D02*
X5858406Y-9835733D01*
X5858406Y-9835733D02*
X5877454Y-9826209D01*
X5877454Y-9826209D02*
X5886978Y-9816685D01*
X5886978Y-9816685D02*
X5896502Y-9797638D01*
X6077454Y-9711923D02*
X5982216Y-9711923D01*
X5982216Y-9711923D02*
X5972692Y-9807162D01*
X5972692Y-9807162D02*
X5982216Y-9797638D01*
X5982216Y-9797638D02*
X6001264Y-9788114D01*
X6001264Y-9788114D02*
X6048883Y-9788114D01*
X6048883Y-9788114D02*
X6067930Y-9797638D01*
X6067930Y-9797638D02*
X6077454Y-9807162D01*
X6077454Y-9807162D02*
X6086978Y-9826209D01*
X6086978Y-9826209D02*
X6086978Y-9873828D01*
X6086978Y-9873828D02*
X6077454Y-9892876D01*
X6077454Y-9892876D02*
X6067930Y-9902400D01*
X6067930Y-9902400D02*
X6048883Y-9911923D01*
X6048883Y-9911923D02*
X6001264Y-9911923D01*
X6001264Y-9911923D02*
X5982216Y-9902400D01*
X5982216Y-9902400D02*
X5972692Y-9892876D01*
X6163168Y-9711923D02*
X6163168Y-9750019D01*
X6239359Y-9711923D02*
X6239359Y-9750019D01*
X6534597Y-9988114D02*
X6525073Y-9978590D01*
X6525073Y-9978590D02*
X6506026Y-9950019D01*
X6506026Y-9950019D02*
X6496502Y-9930971D01*
X6496502Y-9930971D02*
X6486978Y-9902400D01*
X6486978Y-9902400D02*
X6477454Y-9854781D01*
X6477454Y-9854781D02*
X6477454Y-9816685D01*
X6477454Y-9816685D02*
X6486978Y-9769066D01*
X6486978Y-9769066D02*
X6496502Y-9740495D01*
X6496502Y-9740495D02*
X6506026Y-9721447D01*
X6506026Y-9721447D02*
X6525073Y-9692876D01*
X6525073Y-9692876D02*
X6534597Y-9683352D01*
X6591740Y-9711923D02*
X6715549Y-9711923D01*
X6715549Y-9711923D02*
X6648883Y-9788114D01*
X6648883Y-9788114D02*
X6677454Y-9788114D01*
X6677454Y-9788114D02*
X6696502Y-9797638D01*
X6696502Y-9797638D02*
X6706026Y-9807162D01*
X6706026Y-9807162D02*
X6715549Y-9826209D01*
X6715549Y-9826209D02*
X6715549Y-9873828D01*
X6715549Y-9873828D02*
X6706026Y-9892876D01*
X6706026Y-9892876D02*
X6696502Y-9902400D01*
X6696502Y-9902400D02*
X6677454Y-9911923D01*
X6677454Y-9911923D02*
X6620311Y-9911923D01*
X6620311Y-9911923D02*
X6601264Y-9902400D01*
X6601264Y-9902400D02*
X6591740Y-9892876D01*
X6953645Y-9911923D02*
X6953645Y-9711923D01*
X7039359Y-9911923D02*
X7039359Y-9807162D01*
X7039359Y-9807162D02*
X7029835Y-9788114D01*
X7029835Y-9788114D02*
X7010788Y-9778590D01*
X7010788Y-9778590D02*
X6982216Y-9778590D01*
X6982216Y-9778590D02*
X6963168Y-9788114D01*
X6963168Y-9788114D02*
X6953645Y-9797638D01*
X7163168Y-9911923D02*
X7144121Y-9902400D01*
X7144121Y-9902400D02*
X7134597Y-9892876D01*
X7134597Y-9892876D02*
X7125073Y-9873828D01*
X7125073Y-9873828D02*
X7125073Y-9816685D01*
X7125073Y-9816685D02*
X7134597Y-9797638D01*
X7134597Y-9797638D02*
X7144121Y-9788114D01*
X7144121Y-9788114D02*
X7163168Y-9778590D01*
X7163168Y-9778590D02*
X7191740Y-9778590D01*
X7191740Y-9778590D02*
X7210788Y-9788114D01*
X7210788Y-9788114D02*
X7220311Y-9797638D01*
X7220311Y-9797638D02*
X7229835Y-9816685D01*
X7229835Y-9816685D02*
X7229835Y-9873828D01*
X7229835Y-9873828D02*
X7220311Y-9892876D01*
X7220311Y-9892876D02*
X7210788Y-9902400D01*
X7210788Y-9902400D02*
X7191740Y-9911923D01*
X7191740Y-9911923D02*
X7163168Y-9911923D01*
X7344121Y-9911923D02*
X7325073Y-9902400D01*
X7325073Y-9902400D02*
X7315549Y-9883352D01*
X7315549Y-9883352D02*
X7315549Y-9711923D01*
X7496502Y-9902400D02*
X7477454Y-9911923D01*
X7477454Y-9911923D02*
X7439359Y-9911923D01*
X7439359Y-9911923D02*
X7420311Y-9902400D01*
X7420311Y-9902400D02*
X7410788Y-9883352D01*
X7410788Y-9883352D02*
X7410788Y-9807162D01*
X7410788Y-9807162D02*
X7420311Y-9788114D01*
X7420311Y-9788114D02*
X7439359Y-9778590D01*
X7439359Y-9778590D02*
X7477454Y-9778590D01*
X7477454Y-9778590D02*
X7496502Y-9788114D01*
X7496502Y-9788114D02*
X7506026Y-9807162D01*
X7506026Y-9807162D02*
X7506026Y-9826209D01*
X7506026Y-9826209D02*
X7410788Y-9845257D01*
X7582216Y-9902400D02*
X7601264Y-9911923D01*
X7601264Y-9911923D02*
X7639359Y-9911923D01*
X7639359Y-9911923D02*
X7658407Y-9902400D01*
X7658407Y-9902400D02*
X7667930Y-9883352D01*
X7667930Y-9883352D02*
X7667930Y-9873828D01*
X7667930Y-9873828D02*
X7658407Y-9854781D01*
X7658407Y-9854781D02*
X7639359Y-9845257D01*
X7639359Y-9845257D02*
X7610788Y-9845257D01*
X7610788Y-9845257D02*
X7591740Y-9835733D01*
X7591740Y-9835733D02*
X7582216Y-9816685D01*
X7582216Y-9816685D02*
X7582216Y-9807162D01*
X7582216Y-9807162D02*
X7591740Y-9788114D01*
X7591740Y-9788114D02*
X7610788Y-9778590D01*
X7610788Y-9778590D02*
X7639359Y-9778590D01*
X7639359Y-9778590D02*
X7658407Y-9788114D01*
X7734597Y-9988114D02*
X7744121Y-9978590D01*
X7744121Y-9978590D02*
X7763169Y-9950019D01*
X7763169Y-9950019D02*
X7772692Y-9930971D01*
X7772692Y-9930971D02*
X7782216Y-9902400D01*
X7782216Y-9902400D02*
X7791740Y-9854781D01*
X7791740Y-9854781D02*
X7791740Y-9816685D01*
X7791740Y-9816685D02*
X7782216Y-9769066D01*
X7782216Y-9769066D02*
X7772692Y-9740495D01*
X7772692Y-9740495D02*
X7763169Y-9721447D01*
X7763169Y-9721447D02*
X7744121Y-9692876D01*
X7744121Y-9692876D02*
X7734597Y-9683352D01*
D12*
X2959534Y-10084440D02*
G75*
G02*
X2879534Y-10084440I-40000J0D01*
G01*
X2879534Y-10084440D02*
G75*
G02*
X2959534Y-10084440I40000J0D01*
G01*
D11*
X3258406Y-9975923D02*
X3277454Y-9975923D01*
X3277454Y-9975923D02*
X3296501Y-9985447D01*
X3296501Y-9985447D02*
X3306025Y-9994971D01*
X3306025Y-9994971D02*
X3315549Y-10014019D01*
X3315549Y-10014019D02*
X3325073Y-10052114D01*
X3325073Y-10052114D02*
X3325073Y-10099733D01*
X3325073Y-10099733D02*
X3315549Y-10137828D01*
X3315549Y-10137828D02*
X3306025Y-10156876D01*
X3306025Y-10156876D02*
X3296501Y-10166400D01*
X3296501Y-10166400D02*
X3277454Y-10175923D01*
X3277454Y-10175923D02*
X3258406Y-10175923D01*
X3258406Y-10175923D02*
X3239359Y-10166400D01*
X3239359Y-10166400D02*
X3229835Y-10156876D01*
X3229835Y-10156876D02*
X3220311Y-10137828D01*
X3220311Y-10137828D02*
X3210787Y-10099733D01*
X3210787Y-10099733D02*
X3210787Y-10052114D01*
X3210787Y-10052114D02*
X3220311Y-10014019D01*
X3220311Y-10014019D02*
X3229835Y-9994971D01*
X3229835Y-9994971D02*
X3239359Y-9985447D01*
X3239359Y-9985447D02*
X3258406Y-9975923D01*
X3410787Y-10156876D02*
X3420311Y-10166400D01*
X3420311Y-10166400D02*
X3410787Y-10175923D01*
X3410787Y-10175923D02*
X3401263Y-10166400D01*
X3401263Y-10166400D02*
X3410787Y-10156876D01*
X3410787Y-10156876D02*
X3410787Y-10175923D01*
X3534597Y-10061638D02*
X3515549Y-10052114D01*
X3515549Y-10052114D02*
X3506025Y-10042590D01*
X3506025Y-10042590D02*
X3496501Y-10023542D01*
X3496501Y-10023542D02*
X3496501Y-10014019D01*
X3496501Y-10014019D02*
X3506025Y-9994971D01*
X3506025Y-9994971D02*
X3515549Y-9985447D01*
X3515549Y-9985447D02*
X3534597Y-9975923D01*
X3534597Y-9975923D02*
X3572692Y-9975923D01*
X3572692Y-9975923D02*
X3591740Y-9985447D01*
X3591740Y-9985447D02*
X3601263Y-9994971D01*
X3601263Y-9994971D02*
X3610787Y-10014019D01*
X3610787Y-10014019D02*
X3610787Y-10023542D01*
X3610787Y-10023542D02*
X3601263Y-10042590D01*
X3601263Y-10042590D02*
X3591740Y-10052114D01*
X3591740Y-10052114D02*
X3572692Y-10061638D01*
X3572692Y-10061638D02*
X3534597Y-10061638D01*
X3534597Y-10061638D02*
X3515549Y-10071162D01*
X3515549Y-10071162D02*
X3506025Y-10080685D01*
X3506025Y-10080685D02*
X3496501Y-10099733D01*
X3496501Y-10099733D02*
X3496501Y-10137828D01*
X3496501Y-10137828D02*
X3506025Y-10156876D01*
X3506025Y-10156876D02*
X3515549Y-10166400D01*
X3515549Y-10166400D02*
X3534597Y-10175923D01*
X3534597Y-10175923D02*
X3572692Y-10175923D01*
X3572692Y-10175923D02*
X3591740Y-10166400D01*
X3591740Y-10166400D02*
X3601263Y-10156876D01*
X3601263Y-10156876D02*
X3610787Y-10137828D01*
X3610787Y-10137828D02*
X3610787Y-10099733D01*
X3610787Y-10099733D02*
X3601263Y-10080685D01*
X3601263Y-10080685D02*
X3591740Y-10071162D01*
X3591740Y-10071162D02*
X3572692Y-10061638D01*
X3734597Y-9975923D02*
X3753644Y-9975923D01*
X3753644Y-9975923D02*
X3772692Y-9985447D01*
X3772692Y-9985447D02*
X3782216Y-9994971D01*
X3782216Y-9994971D02*
X3791740Y-10014019D01*
X3791740Y-10014019D02*
X3801263Y-10052114D01*
X3801263Y-10052114D02*
X3801263Y-10099733D01*
X3801263Y-10099733D02*
X3791740Y-10137828D01*
X3791740Y-10137828D02*
X3782216Y-10156876D01*
X3782216Y-10156876D02*
X3772692Y-10166400D01*
X3772692Y-10166400D02*
X3753644Y-10175923D01*
X3753644Y-10175923D02*
X3734597Y-10175923D01*
X3734597Y-10175923D02*
X3715549Y-10166400D01*
X3715549Y-10166400D02*
X3706025Y-10156876D01*
X3706025Y-10156876D02*
X3696501Y-10137828D01*
X3696501Y-10137828D02*
X3686978Y-10099733D01*
X3686978Y-10099733D02*
X3686978Y-10052114D01*
X3686978Y-10052114D02*
X3696501Y-10014019D01*
X3696501Y-10014019D02*
X3706025Y-9994971D01*
X3706025Y-9994971D02*
X3715549Y-9985447D01*
X3715549Y-9985447D02*
X3734597Y-9975923D01*
X3925073Y-9975923D02*
X3944121Y-9975923D01*
X3944121Y-9975923D02*
X3963168Y-9985447D01*
X3963168Y-9985447D02*
X3972692Y-9994971D01*
X3972692Y-9994971D02*
X3982216Y-10014019D01*
X3982216Y-10014019D02*
X3991740Y-10052114D01*
X3991740Y-10052114D02*
X3991740Y-10099733D01*
X3991740Y-10099733D02*
X3982216Y-10137828D01*
X3982216Y-10137828D02*
X3972692Y-10156876D01*
X3972692Y-10156876D02*
X3963168Y-10166400D01*
X3963168Y-10166400D02*
X3944121Y-10175923D01*
X3944121Y-10175923D02*
X3925073Y-10175923D01*
X3925073Y-10175923D02*
X3906025Y-10166400D01*
X3906025Y-10166400D02*
X3896501Y-10156876D01*
X3896501Y-10156876D02*
X3886978Y-10137828D01*
X3886978Y-10137828D02*
X3877454Y-10099733D01*
X3877454Y-10099733D02*
X3877454Y-10052114D01*
X3877454Y-10052114D02*
X3886978Y-10014019D01*
X3886978Y-10014019D02*
X3896501Y-9994971D01*
X3896501Y-9994971D02*
X3906025Y-9985447D01*
X3906025Y-9985447D02*
X3925073Y-9975923D01*
X4077454Y-10175923D02*
X4077454Y-10042590D01*
X4077454Y-10061638D02*
X4086978Y-10052114D01*
X4086978Y-10052114D02*
X4106025Y-10042590D01*
X4106025Y-10042590D02*
X4134597Y-10042590D01*
X4134597Y-10042590D02*
X4153644Y-10052114D01*
X4153644Y-10052114D02*
X4163168Y-10071162D01*
X4163168Y-10071162D02*
X4163168Y-10175923D01*
X4163168Y-10071162D02*
X4172692Y-10052114D01*
X4172692Y-10052114D02*
X4191740Y-10042590D01*
X4191740Y-10042590D02*
X4220311Y-10042590D01*
X4220311Y-10042590D02*
X4239359Y-10052114D01*
X4239359Y-10052114D02*
X4248883Y-10071162D01*
X4248883Y-10071162D02*
X4248883Y-10175923D01*
X4344121Y-10175923D02*
X4344121Y-10042590D01*
X4344121Y-10061638D02*
X4353644Y-10052114D01*
X4353644Y-10052114D02*
X4372692Y-10042590D01*
X4372692Y-10042590D02*
X4401264Y-10042590D01*
X4401264Y-10042590D02*
X4420311Y-10052114D01*
X4420311Y-10052114D02*
X4429835Y-10071162D01*
X4429835Y-10071162D02*
X4429835Y-10175923D01*
X4429835Y-10071162D02*
X4439359Y-10052114D01*
X4439359Y-10052114D02*
X4458406Y-10042590D01*
X4458406Y-10042590D02*
X4486978Y-10042590D01*
X4486978Y-10042590D02*
X4506025Y-10052114D01*
X4506025Y-10052114D02*
X4515549Y-10071162D01*
X4515549Y-10071162D02*
X4515549Y-10175923D01*
X4906025Y-9966400D02*
X4734597Y-10223542D01*
X5163168Y-9975923D02*
X5182216Y-9975923D01*
X5182216Y-9975923D02*
X5201264Y-9985447D01*
X5201264Y-9985447D02*
X5210787Y-9994971D01*
X5210787Y-9994971D02*
X5220311Y-10014019D01*
X5220311Y-10014019D02*
X5229835Y-10052114D01*
X5229835Y-10052114D02*
X5229835Y-10099733D01*
X5229835Y-10099733D02*
X5220311Y-10137828D01*
X5220311Y-10137828D02*
X5210787Y-10156876D01*
X5210787Y-10156876D02*
X5201264Y-10166400D01*
X5201264Y-10166400D02*
X5182216Y-10175923D01*
X5182216Y-10175923D02*
X5163168Y-10175923D01*
X5163168Y-10175923D02*
X5144121Y-10166400D01*
X5144121Y-10166400D02*
X5134597Y-10156876D01*
X5134597Y-10156876D02*
X5125073Y-10137828D01*
X5125073Y-10137828D02*
X5115549Y-10099733D01*
X5115549Y-10099733D02*
X5115549Y-10052114D01*
X5115549Y-10052114D02*
X5125073Y-10014019D01*
X5125073Y-10014019D02*
X5134597Y-9994971D01*
X5134597Y-9994971D02*
X5144121Y-9985447D01*
X5144121Y-9985447D02*
X5163168Y-9975923D01*
X5315549Y-10156876D02*
X5325073Y-10166400D01*
X5325073Y-10166400D02*
X5315549Y-10175923D01*
X5315549Y-10175923D02*
X5306026Y-10166400D01*
X5306026Y-10166400D02*
X5315549Y-10156876D01*
X5315549Y-10156876D02*
X5315549Y-10175923D01*
X5448883Y-9975923D02*
X5467930Y-9975923D01*
X5467930Y-9975923D02*
X5486978Y-9985447D01*
X5486978Y-9985447D02*
X5496502Y-9994971D01*
X5496502Y-9994971D02*
X5506026Y-10014019D01*
X5506026Y-10014019D02*
X5515549Y-10052114D01*
X5515549Y-10052114D02*
X5515549Y-10099733D01*
X5515549Y-10099733D02*
X5506026Y-10137828D01*
X5506026Y-10137828D02*
X5496502Y-10156876D01*
X5496502Y-10156876D02*
X5486978Y-10166400D01*
X5486978Y-10166400D02*
X5467930Y-10175923D01*
X5467930Y-10175923D02*
X5448883Y-10175923D01*
X5448883Y-10175923D02*
X5429835Y-10166400D01*
X5429835Y-10166400D02*
X5420311Y-10156876D01*
X5420311Y-10156876D02*
X5410787Y-10137828D01*
X5410787Y-10137828D02*
X5401264Y-10099733D01*
X5401264Y-10099733D02*
X5401264Y-10052114D01*
X5401264Y-10052114D02*
X5410787Y-10014019D01*
X5410787Y-10014019D02*
X5420311Y-9994971D01*
X5420311Y-9994971D02*
X5429835Y-9985447D01*
X5429835Y-9985447D02*
X5448883Y-9975923D01*
X5582216Y-9975923D02*
X5706025Y-9975923D01*
X5706025Y-9975923D02*
X5639359Y-10052114D01*
X5639359Y-10052114D02*
X5667930Y-10052114D01*
X5667930Y-10052114D02*
X5686978Y-10061638D01*
X5686978Y-10061638D02*
X5696502Y-10071162D01*
X5696502Y-10071162D02*
X5706025Y-10090209D01*
X5706025Y-10090209D02*
X5706025Y-10137828D01*
X5706025Y-10137828D02*
X5696502Y-10156876D01*
X5696502Y-10156876D02*
X5686978Y-10166400D01*
X5686978Y-10166400D02*
X5667930Y-10175923D01*
X5667930Y-10175923D02*
X5610787Y-10175923D01*
X5610787Y-10175923D02*
X5591740Y-10166400D01*
X5591740Y-10166400D02*
X5582216Y-10156876D01*
X5896502Y-10175923D02*
X5782216Y-10175923D01*
X5839359Y-10175923D02*
X5839359Y-9975923D01*
X5839359Y-9975923D02*
X5820311Y-10004495D01*
X5820311Y-10004495D02*
X5801264Y-10023542D01*
X5801264Y-10023542D02*
X5782216Y-10033066D01*
X6077454Y-9975923D02*
X5982216Y-9975923D01*
X5982216Y-9975923D02*
X5972692Y-10071162D01*
X5972692Y-10071162D02*
X5982216Y-10061638D01*
X5982216Y-10061638D02*
X6001264Y-10052114D01*
X6001264Y-10052114D02*
X6048883Y-10052114D01*
X6048883Y-10052114D02*
X6067930Y-10061638D01*
X6067930Y-10061638D02*
X6077454Y-10071162D01*
X6077454Y-10071162D02*
X6086978Y-10090209D01*
X6086978Y-10090209D02*
X6086978Y-10137828D01*
X6086978Y-10137828D02*
X6077454Y-10156876D01*
X6077454Y-10156876D02*
X6067930Y-10166400D01*
X6067930Y-10166400D02*
X6048883Y-10175923D01*
X6048883Y-10175923D02*
X6001264Y-10175923D01*
X6001264Y-10175923D02*
X5982216Y-10166400D01*
X5982216Y-10166400D02*
X5972692Y-10156876D01*
X6163168Y-9975923D02*
X6163168Y-10014019D01*
X6239359Y-9975923D02*
X6239359Y-10014019D01*
X6534597Y-10252114D02*
X6525073Y-10242590D01*
X6525073Y-10242590D02*
X6506026Y-10214019D01*
X6506026Y-10214019D02*
X6496502Y-10194971D01*
X6496502Y-10194971D02*
X6486978Y-10166400D01*
X6486978Y-10166400D02*
X6477454Y-10118781D01*
X6477454Y-10118781D02*
X6477454Y-10080685D01*
X6477454Y-10080685D02*
X6486978Y-10033066D01*
X6486978Y-10033066D02*
X6496502Y-10004495D01*
X6496502Y-10004495D02*
X6506026Y-9985447D01*
X6506026Y-9985447D02*
X6525073Y-9956876D01*
X6525073Y-9956876D02*
X6534597Y-9947352D01*
X6696502Y-9975923D02*
X6658406Y-9975923D01*
X6658406Y-9975923D02*
X6639359Y-9985447D01*
X6639359Y-9985447D02*
X6629835Y-9994971D01*
X6629835Y-9994971D02*
X6610787Y-10023542D01*
X6610787Y-10023542D02*
X6601264Y-10061638D01*
X6601264Y-10061638D02*
X6601264Y-10137828D01*
X6601264Y-10137828D02*
X6610787Y-10156876D01*
X6610787Y-10156876D02*
X6620311Y-10166400D01*
X6620311Y-10166400D02*
X6639359Y-10175923D01*
X6639359Y-10175923D02*
X6677454Y-10175923D01*
X6677454Y-10175923D02*
X6696502Y-10166400D01*
X6696502Y-10166400D02*
X6706026Y-10156876D01*
X6706026Y-10156876D02*
X6715549Y-10137828D01*
X6715549Y-10137828D02*
X6715549Y-10090209D01*
X6715549Y-10090209D02*
X6706026Y-10071162D01*
X6706026Y-10071162D02*
X6696502Y-10061638D01*
X6696502Y-10061638D02*
X6677454Y-10052114D01*
X6677454Y-10052114D02*
X6639359Y-10052114D01*
X6639359Y-10052114D02*
X6620311Y-10061638D01*
X6620311Y-10061638D02*
X6610787Y-10071162D01*
X6610787Y-10071162D02*
X6601264Y-10090209D01*
X6953645Y-10175923D02*
X6953645Y-9975923D01*
X7039359Y-10175923D02*
X7039359Y-10071162D01*
X7039359Y-10071162D02*
X7029835Y-10052114D01*
X7029835Y-10052114D02*
X7010788Y-10042590D01*
X7010788Y-10042590D02*
X6982216Y-10042590D01*
X6982216Y-10042590D02*
X6963168Y-10052114D01*
X6963168Y-10052114D02*
X6953645Y-10061638D01*
X7163168Y-10175923D02*
X7144121Y-10166400D01*
X7144121Y-10166400D02*
X7134597Y-10156876D01*
X7134597Y-10156876D02*
X7125073Y-10137828D01*
X7125073Y-10137828D02*
X7125073Y-10080685D01*
X7125073Y-10080685D02*
X7134597Y-10061638D01*
X7134597Y-10061638D02*
X7144121Y-10052114D01*
X7144121Y-10052114D02*
X7163168Y-10042590D01*
X7163168Y-10042590D02*
X7191740Y-10042590D01*
X7191740Y-10042590D02*
X7210788Y-10052114D01*
X7210788Y-10052114D02*
X7220311Y-10061638D01*
X7220311Y-10061638D02*
X7229835Y-10080685D01*
X7229835Y-10080685D02*
X7229835Y-10137828D01*
X7229835Y-10137828D02*
X7220311Y-10156876D01*
X7220311Y-10156876D02*
X7210788Y-10166400D01*
X7210788Y-10166400D02*
X7191740Y-10175923D01*
X7191740Y-10175923D02*
X7163168Y-10175923D01*
X7344121Y-10175923D02*
X7325073Y-10166400D01*
X7325073Y-10166400D02*
X7315549Y-10147352D01*
X7315549Y-10147352D02*
X7315549Y-9975923D01*
X7496502Y-10166400D02*
X7477454Y-10175923D01*
X7477454Y-10175923D02*
X7439359Y-10175923D01*
X7439359Y-10175923D02*
X7420311Y-10166400D01*
X7420311Y-10166400D02*
X7410788Y-10147352D01*
X7410788Y-10147352D02*
X7410788Y-10071162D01*
X7410788Y-10071162D02*
X7420311Y-10052114D01*
X7420311Y-10052114D02*
X7439359Y-10042590D01*
X7439359Y-10042590D02*
X7477454Y-10042590D01*
X7477454Y-10042590D02*
X7496502Y-10052114D01*
X7496502Y-10052114D02*
X7506026Y-10071162D01*
X7506026Y-10071162D02*
X7506026Y-10090209D01*
X7506026Y-10090209D02*
X7410788Y-10109257D01*
X7582216Y-10166400D02*
X7601264Y-10175923D01*
X7601264Y-10175923D02*
X7639359Y-10175923D01*
X7639359Y-10175923D02*
X7658407Y-10166400D01*
X7658407Y-10166400D02*
X7667930Y-10147352D01*
X7667930Y-10147352D02*
X7667930Y-10137828D01*
X7667930Y-10137828D02*
X7658407Y-10118781D01*
X7658407Y-10118781D02*
X7639359Y-10109257D01*
X7639359Y-10109257D02*
X7610788Y-10109257D01*
X7610788Y-10109257D02*
X7591740Y-10099733D01*
X7591740Y-10099733D02*
X7582216Y-10080685D01*
X7582216Y-10080685D02*
X7582216Y-10071162D01*
X7582216Y-10071162D02*
X7591740Y-10052114D01*
X7591740Y-10052114D02*
X7610788Y-10042590D01*
X7610788Y-10042590D02*
X7639359Y-10042590D01*
X7639359Y-10042590D02*
X7658407Y-10052114D01*
X7734597Y-10252114D02*
X7744121Y-10242590D01*
X7744121Y-10242590D02*
X7763169Y-10214019D01*
X7763169Y-10214019D02*
X7772692Y-10194971D01*
X7772692Y-10194971D02*
X7782216Y-10166400D01*
X7782216Y-10166400D02*
X7791740Y-10118781D01*
X7791740Y-10118781D02*
X7791740Y-10080685D01*
X7791740Y-10080685D02*
X7782216Y-10033066D01*
X7782216Y-10033066D02*
X7772692Y-10004495D01*
X7772692Y-10004495D02*
X7763169Y-9985447D01*
X7763169Y-9985447D02*
X7744121Y-9956876D01*
X7744121Y-9956876D02*
X7734597Y-9947352D01*
D12*
X2914534Y-10303440D02*
X2914534Y-10393440D01*
X2869534Y-10348440D02*
X2959534Y-10348440D01*
D11*
X3258406Y-10239923D02*
X3277454Y-10239923D01*
X3277454Y-10239923D02*
X3296501Y-10249447D01*
X3296501Y-10249447D02*
X3306025Y-10258971D01*
X3306025Y-10258971D02*
X3315549Y-10278019D01*
X3315549Y-10278019D02*
X3325073Y-10316114D01*
X3325073Y-10316114D02*
X3325073Y-10363733D01*
X3325073Y-10363733D02*
X3315549Y-10401828D01*
X3315549Y-10401828D02*
X3306025Y-10420876D01*
X3306025Y-10420876D02*
X3296501Y-10430400D01*
X3296501Y-10430400D02*
X3277454Y-10439923D01*
X3277454Y-10439923D02*
X3258406Y-10439923D01*
X3258406Y-10439923D02*
X3239359Y-10430400D01*
X3239359Y-10430400D02*
X3229835Y-10420876D01*
X3229835Y-10420876D02*
X3220311Y-10401828D01*
X3220311Y-10401828D02*
X3210787Y-10363733D01*
X3210787Y-10363733D02*
X3210787Y-10316114D01*
X3210787Y-10316114D02*
X3220311Y-10278019D01*
X3220311Y-10278019D02*
X3229835Y-10258971D01*
X3229835Y-10258971D02*
X3239359Y-10249447D01*
X3239359Y-10249447D02*
X3258406Y-10239923D01*
X3410787Y-10420876D02*
X3420311Y-10430400D01*
X3420311Y-10430400D02*
X3410787Y-10439923D01*
X3410787Y-10439923D02*
X3401263Y-10430400D01*
X3401263Y-10430400D02*
X3410787Y-10420876D01*
X3410787Y-10420876D02*
X3410787Y-10439923D01*
X3515549Y-10439923D02*
X3553644Y-10439923D01*
X3553644Y-10439923D02*
X3572692Y-10430400D01*
X3572692Y-10430400D02*
X3582216Y-10420876D01*
X3582216Y-10420876D02*
X3601263Y-10392304D01*
X3601263Y-10392304D02*
X3610787Y-10354209D01*
X3610787Y-10354209D02*
X3610787Y-10278019D01*
X3610787Y-10278019D02*
X3601263Y-10258971D01*
X3601263Y-10258971D02*
X3591740Y-10249447D01*
X3591740Y-10249447D02*
X3572692Y-10239923D01*
X3572692Y-10239923D02*
X3534597Y-10239923D01*
X3534597Y-10239923D02*
X3515549Y-10249447D01*
X3515549Y-10249447D02*
X3506025Y-10258971D01*
X3506025Y-10258971D02*
X3496501Y-10278019D01*
X3496501Y-10278019D02*
X3496501Y-10325638D01*
X3496501Y-10325638D02*
X3506025Y-10344685D01*
X3506025Y-10344685D02*
X3515549Y-10354209D01*
X3515549Y-10354209D02*
X3534597Y-10363733D01*
X3534597Y-10363733D02*
X3572692Y-10363733D01*
X3572692Y-10363733D02*
X3591740Y-10354209D01*
X3591740Y-10354209D02*
X3601263Y-10344685D01*
X3601263Y-10344685D02*
X3610787Y-10325638D01*
X3734597Y-10239923D02*
X3753644Y-10239923D01*
X3753644Y-10239923D02*
X3772692Y-10249447D01*
X3772692Y-10249447D02*
X3782216Y-10258971D01*
X3782216Y-10258971D02*
X3791740Y-10278019D01*
X3791740Y-10278019D02*
X3801263Y-10316114D01*
X3801263Y-10316114D02*
X3801263Y-10363733D01*
X3801263Y-10363733D02*
X3791740Y-10401828D01*
X3791740Y-10401828D02*
X3782216Y-10420876D01*
X3782216Y-10420876D02*
X3772692Y-10430400D01*
X3772692Y-10430400D02*
X3753644Y-10439923D01*
X3753644Y-10439923D02*
X3734597Y-10439923D01*
X3734597Y-10439923D02*
X3715549Y-10430400D01*
X3715549Y-10430400D02*
X3706025Y-10420876D01*
X3706025Y-10420876D02*
X3696501Y-10401828D01*
X3696501Y-10401828D02*
X3686978Y-10363733D01*
X3686978Y-10363733D02*
X3686978Y-10316114D01*
X3686978Y-10316114D02*
X3696501Y-10278019D01*
X3696501Y-10278019D02*
X3706025Y-10258971D01*
X3706025Y-10258971D02*
X3715549Y-10249447D01*
X3715549Y-10249447D02*
X3734597Y-10239923D01*
X3925073Y-10239923D02*
X3944121Y-10239923D01*
X3944121Y-10239923D02*
X3963168Y-10249447D01*
X3963168Y-10249447D02*
X3972692Y-10258971D01*
X3972692Y-10258971D02*
X3982216Y-10278019D01*
X3982216Y-10278019D02*
X3991740Y-10316114D01*
X3991740Y-10316114D02*
X3991740Y-10363733D01*
X3991740Y-10363733D02*
X3982216Y-10401828D01*
X3982216Y-10401828D02*
X3972692Y-10420876D01*
X3972692Y-10420876D02*
X3963168Y-10430400D01*
X3963168Y-10430400D02*
X3944121Y-10439923D01*
X3944121Y-10439923D02*
X3925073Y-10439923D01*
X3925073Y-10439923D02*
X3906025Y-10430400D01*
X3906025Y-10430400D02*
X3896501Y-10420876D01*
X3896501Y-10420876D02*
X3886978Y-10401828D01*
X3886978Y-10401828D02*
X3877454Y-10363733D01*
X3877454Y-10363733D02*
X3877454Y-10316114D01*
X3877454Y-10316114D02*
X3886978Y-10278019D01*
X3886978Y-10278019D02*
X3896501Y-10258971D01*
X3896501Y-10258971D02*
X3906025Y-10249447D01*
X3906025Y-10249447D02*
X3925073Y-10239923D01*
X4077454Y-10439923D02*
X4077454Y-10306590D01*
X4077454Y-10325638D02*
X4086978Y-10316114D01*
X4086978Y-10316114D02*
X4106025Y-10306590D01*
X4106025Y-10306590D02*
X4134597Y-10306590D01*
X4134597Y-10306590D02*
X4153644Y-10316114D01*
X4153644Y-10316114D02*
X4163168Y-10335162D01*
X4163168Y-10335162D02*
X4163168Y-10439923D01*
X4163168Y-10335162D02*
X4172692Y-10316114D01*
X4172692Y-10316114D02*
X4191740Y-10306590D01*
X4191740Y-10306590D02*
X4220311Y-10306590D01*
X4220311Y-10306590D02*
X4239359Y-10316114D01*
X4239359Y-10316114D02*
X4248883Y-10335162D01*
X4248883Y-10335162D02*
X4248883Y-10439923D01*
X4344121Y-10439923D02*
X4344121Y-10306590D01*
X4344121Y-10325638D02*
X4353644Y-10316114D01*
X4353644Y-10316114D02*
X4372692Y-10306590D01*
X4372692Y-10306590D02*
X4401264Y-10306590D01*
X4401264Y-10306590D02*
X4420311Y-10316114D01*
X4420311Y-10316114D02*
X4429835Y-10335162D01*
X4429835Y-10335162D02*
X4429835Y-10439923D01*
X4429835Y-10335162D02*
X4439359Y-10316114D01*
X4439359Y-10316114D02*
X4458406Y-10306590D01*
X4458406Y-10306590D02*
X4486978Y-10306590D01*
X4486978Y-10306590D02*
X4506025Y-10316114D01*
X4506025Y-10316114D02*
X4515549Y-10335162D01*
X4515549Y-10335162D02*
X4515549Y-10439923D01*
X4906025Y-10230400D02*
X4734597Y-10487542D01*
X5163168Y-10239923D02*
X5182216Y-10239923D01*
X5182216Y-10239923D02*
X5201264Y-10249447D01*
X5201264Y-10249447D02*
X5210787Y-10258971D01*
X5210787Y-10258971D02*
X5220311Y-10278019D01*
X5220311Y-10278019D02*
X5229835Y-10316114D01*
X5229835Y-10316114D02*
X5229835Y-10363733D01*
X5229835Y-10363733D02*
X5220311Y-10401828D01*
X5220311Y-10401828D02*
X5210787Y-10420876D01*
X5210787Y-10420876D02*
X5201264Y-10430400D01*
X5201264Y-10430400D02*
X5182216Y-10439923D01*
X5182216Y-10439923D02*
X5163168Y-10439923D01*
X5163168Y-10439923D02*
X5144121Y-10430400D01*
X5144121Y-10430400D02*
X5134597Y-10420876D01*
X5134597Y-10420876D02*
X5125073Y-10401828D01*
X5125073Y-10401828D02*
X5115549Y-10363733D01*
X5115549Y-10363733D02*
X5115549Y-10316114D01*
X5115549Y-10316114D02*
X5125073Y-10278019D01*
X5125073Y-10278019D02*
X5134597Y-10258971D01*
X5134597Y-10258971D02*
X5144121Y-10249447D01*
X5144121Y-10249447D02*
X5163168Y-10239923D01*
X5315549Y-10420876D02*
X5325073Y-10430400D01*
X5325073Y-10430400D02*
X5315549Y-10439923D01*
X5315549Y-10439923D02*
X5306026Y-10430400D01*
X5306026Y-10430400D02*
X5315549Y-10420876D01*
X5315549Y-10420876D02*
X5315549Y-10439923D01*
X5448883Y-10239923D02*
X5467930Y-10239923D01*
X5467930Y-10239923D02*
X5486978Y-10249447D01*
X5486978Y-10249447D02*
X5496502Y-10258971D01*
X5496502Y-10258971D02*
X5506026Y-10278019D01*
X5506026Y-10278019D02*
X5515549Y-10316114D01*
X5515549Y-10316114D02*
X5515549Y-10363733D01*
X5515549Y-10363733D02*
X5506026Y-10401828D01*
X5506026Y-10401828D02*
X5496502Y-10420876D01*
X5496502Y-10420876D02*
X5486978Y-10430400D01*
X5486978Y-10430400D02*
X5467930Y-10439923D01*
X5467930Y-10439923D02*
X5448883Y-10439923D01*
X5448883Y-10439923D02*
X5429835Y-10430400D01*
X5429835Y-10430400D02*
X5420311Y-10420876D01*
X5420311Y-10420876D02*
X5410787Y-10401828D01*
X5410787Y-10401828D02*
X5401264Y-10363733D01*
X5401264Y-10363733D02*
X5401264Y-10316114D01*
X5401264Y-10316114D02*
X5410787Y-10278019D01*
X5410787Y-10278019D02*
X5420311Y-10258971D01*
X5420311Y-10258971D02*
X5429835Y-10249447D01*
X5429835Y-10249447D02*
X5448883Y-10239923D01*
X5582216Y-10239923D02*
X5706025Y-10239923D01*
X5706025Y-10239923D02*
X5639359Y-10316114D01*
X5639359Y-10316114D02*
X5667930Y-10316114D01*
X5667930Y-10316114D02*
X5686978Y-10325638D01*
X5686978Y-10325638D02*
X5696502Y-10335162D01*
X5696502Y-10335162D02*
X5706025Y-10354209D01*
X5706025Y-10354209D02*
X5706025Y-10401828D01*
X5706025Y-10401828D02*
X5696502Y-10420876D01*
X5696502Y-10420876D02*
X5686978Y-10430400D01*
X5686978Y-10430400D02*
X5667930Y-10439923D01*
X5667930Y-10439923D02*
X5610787Y-10439923D01*
X5610787Y-10439923D02*
X5591740Y-10430400D01*
X5591740Y-10430400D02*
X5582216Y-10420876D01*
X5886978Y-10239923D02*
X5791740Y-10239923D01*
X5791740Y-10239923D02*
X5782216Y-10335162D01*
X5782216Y-10335162D02*
X5791740Y-10325638D01*
X5791740Y-10325638D02*
X5810787Y-10316114D01*
X5810787Y-10316114D02*
X5858406Y-10316114D01*
X5858406Y-10316114D02*
X5877454Y-10325638D01*
X5877454Y-10325638D02*
X5886978Y-10335162D01*
X5886978Y-10335162D02*
X5896502Y-10354209D01*
X5896502Y-10354209D02*
X5896502Y-10401828D01*
X5896502Y-10401828D02*
X5886978Y-10420876D01*
X5886978Y-10420876D02*
X5877454Y-10430400D01*
X5877454Y-10430400D02*
X5858406Y-10439923D01*
X5858406Y-10439923D02*
X5810787Y-10439923D01*
X5810787Y-10439923D02*
X5791740Y-10430400D01*
X5791740Y-10430400D02*
X5782216Y-10420876D01*
X6067930Y-10306590D02*
X6067930Y-10439923D01*
X6020311Y-10230400D02*
X5972692Y-10373257D01*
X5972692Y-10373257D02*
X6096502Y-10373257D01*
X6163168Y-10239923D02*
X6163168Y-10278019D01*
X6239359Y-10239923D02*
X6239359Y-10278019D01*
X6534597Y-10516114D02*
X6525073Y-10506590D01*
X6525073Y-10506590D02*
X6506026Y-10478019D01*
X6506026Y-10478019D02*
X6496502Y-10458971D01*
X6496502Y-10458971D02*
X6486978Y-10430400D01*
X6486978Y-10430400D02*
X6477454Y-10382781D01*
X6477454Y-10382781D02*
X6477454Y-10344685D01*
X6477454Y-10344685D02*
X6486978Y-10297066D01*
X6486978Y-10297066D02*
X6496502Y-10268495D01*
X6496502Y-10268495D02*
X6506026Y-10249447D01*
X6506026Y-10249447D02*
X6525073Y-10220876D01*
X6525073Y-10220876D02*
X6534597Y-10211352D01*
X6696502Y-10306590D02*
X6696502Y-10439923D01*
X6648883Y-10230400D02*
X6601264Y-10373257D01*
X6601264Y-10373257D02*
X6725073Y-10373257D01*
X6953645Y-10439923D02*
X6953645Y-10239923D01*
X7039359Y-10439923D02*
X7039359Y-10335162D01*
X7039359Y-10335162D02*
X7029835Y-10316114D01*
X7029835Y-10316114D02*
X7010788Y-10306590D01*
X7010788Y-10306590D02*
X6982216Y-10306590D01*
X6982216Y-10306590D02*
X6963168Y-10316114D01*
X6963168Y-10316114D02*
X6953645Y-10325638D01*
X7163168Y-10439923D02*
X7144121Y-10430400D01*
X7144121Y-10430400D02*
X7134597Y-10420876D01*
X7134597Y-10420876D02*
X7125073Y-10401828D01*
X7125073Y-10401828D02*
X7125073Y-10344685D01*
X7125073Y-10344685D02*
X7134597Y-10325638D01*
X7134597Y-10325638D02*
X7144121Y-10316114D01*
X7144121Y-10316114D02*
X7163168Y-10306590D01*
X7163168Y-10306590D02*
X7191740Y-10306590D01*
X7191740Y-10306590D02*
X7210788Y-10316114D01*
X7210788Y-10316114D02*
X7220311Y-10325638D01*
X7220311Y-10325638D02*
X7229835Y-10344685D01*
X7229835Y-10344685D02*
X7229835Y-10401828D01*
X7229835Y-10401828D02*
X7220311Y-10420876D01*
X7220311Y-10420876D02*
X7210788Y-10430400D01*
X7210788Y-10430400D02*
X7191740Y-10439923D01*
X7191740Y-10439923D02*
X7163168Y-10439923D01*
X7344121Y-10439923D02*
X7325073Y-10430400D01*
X7325073Y-10430400D02*
X7315549Y-10411352D01*
X7315549Y-10411352D02*
X7315549Y-10239923D01*
X7496502Y-10430400D02*
X7477454Y-10439923D01*
X7477454Y-10439923D02*
X7439359Y-10439923D01*
X7439359Y-10439923D02*
X7420311Y-10430400D01*
X7420311Y-10430400D02*
X7410788Y-10411352D01*
X7410788Y-10411352D02*
X7410788Y-10335162D01*
X7410788Y-10335162D02*
X7420311Y-10316114D01*
X7420311Y-10316114D02*
X7439359Y-10306590D01*
X7439359Y-10306590D02*
X7477454Y-10306590D01*
X7477454Y-10306590D02*
X7496502Y-10316114D01*
X7496502Y-10316114D02*
X7506026Y-10335162D01*
X7506026Y-10335162D02*
X7506026Y-10354209D01*
X7506026Y-10354209D02*
X7410788Y-10373257D01*
X7582216Y-10430400D02*
X7601264Y-10439923D01*
X7601264Y-10439923D02*
X7639359Y-10439923D01*
X7639359Y-10439923D02*
X7658407Y-10430400D01*
X7658407Y-10430400D02*
X7667930Y-10411352D01*
X7667930Y-10411352D02*
X7667930Y-10401828D01*
X7667930Y-10401828D02*
X7658407Y-10382781D01*
X7658407Y-10382781D02*
X7639359Y-10373257D01*
X7639359Y-10373257D02*
X7610788Y-10373257D01*
X7610788Y-10373257D02*
X7591740Y-10363733D01*
X7591740Y-10363733D02*
X7582216Y-10344685D01*
X7582216Y-10344685D02*
X7582216Y-10335162D01*
X7582216Y-10335162D02*
X7591740Y-10316114D01*
X7591740Y-10316114D02*
X7610788Y-10306590D01*
X7610788Y-10306590D02*
X7639359Y-10306590D01*
X7639359Y-10306590D02*
X7658407Y-10316114D01*
X7734597Y-10516114D02*
X7744121Y-10506590D01*
X7744121Y-10506590D02*
X7763169Y-10478019D01*
X7763169Y-10478019D02*
X7772692Y-10458971D01*
X7772692Y-10458971D02*
X7782216Y-10430400D01*
X7782216Y-10430400D02*
X7791740Y-10382781D01*
X7791740Y-10382781D02*
X7791740Y-10344685D01*
X7791740Y-10344685D02*
X7782216Y-10297066D01*
X7782216Y-10297066D02*
X7772692Y-10268495D01*
X7772692Y-10268495D02*
X7763169Y-10249447D01*
X7763169Y-10249447D02*
X7744121Y-10220876D01*
X7744121Y-10220876D02*
X7734597Y-10211352D01*
X2930246Y-10683151D02*
X2930246Y-10541728D01*
X2788823Y-10541728D01*
X2788823Y-10683151D01*
X2930246Y-10683151D01*
X3315549Y-10503923D02*
X3220311Y-10503923D01*
X3220311Y-10503923D02*
X3210787Y-10599162D01*
X3210787Y-10599162D02*
X3220311Y-10589638D01*
X3220311Y-10589638D02*
X3239359Y-10580114D01*
X3239359Y-10580114D02*
X3286978Y-10580114D01*
X3286978Y-10580114D02*
X3306025Y-10589638D01*
X3306025Y-10589638D02*
X3315549Y-10599162D01*
X3315549Y-10599162D02*
X3325073Y-10618209D01*
X3325073Y-10618209D02*
X3325073Y-10665828D01*
X3325073Y-10665828D02*
X3315549Y-10684876D01*
X3315549Y-10684876D02*
X3306025Y-10694400D01*
X3306025Y-10694400D02*
X3286978Y-10703923D01*
X3286978Y-10703923D02*
X3239359Y-10703923D01*
X3239359Y-10703923D02*
X3220311Y-10694400D01*
X3220311Y-10694400D02*
X3210787Y-10684876D01*
X3410787Y-10684876D02*
X3420311Y-10694400D01*
X3420311Y-10694400D02*
X3410787Y-10703923D01*
X3410787Y-10703923D02*
X3401263Y-10694400D01*
X3401263Y-10694400D02*
X3410787Y-10684876D01*
X3410787Y-10684876D02*
X3410787Y-10703923D01*
X3544120Y-10503923D02*
X3563168Y-10503923D01*
X3563168Y-10503923D02*
X3582216Y-10513447D01*
X3582216Y-10513447D02*
X3591740Y-10522971D01*
X3591740Y-10522971D02*
X3601263Y-10542019D01*
X3601263Y-10542019D02*
X3610787Y-10580114D01*
X3610787Y-10580114D02*
X3610787Y-10627733D01*
X3610787Y-10627733D02*
X3601263Y-10665828D01*
X3601263Y-10665828D02*
X3591740Y-10684876D01*
X3591740Y-10684876D02*
X3582216Y-10694400D01*
X3582216Y-10694400D02*
X3563168Y-10703923D01*
X3563168Y-10703923D02*
X3544120Y-10703923D01*
X3544120Y-10703923D02*
X3525073Y-10694400D01*
X3525073Y-10694400D02*
X3515549Y-10684876D01*
X3515549Y-10684876D02*
X3506025Y-10665828D01*
X3506025Y-10665828D02*
X3496501Y-10627733D01*
X3496501Y-10627733D02*
X3496501Y-10580114D01*
X3496501Y-10580114D02*
X3506025Y-10542019D01*
X3506025Y-10542019D02*
X3515549Y-10522971D01*
X3515549Y-10522971D02*
X3525073Y-10513447D01*
X3525073Y-10513447D02*
X3544120Y-10503923D01*
X3734597Y-10503923D02*
X3753644Y-10503923D01*
X3753644Y-10503923D02*
X3772692Y-10513447D01*
X3772692Y-10513447D02*
X3782216Y-10522971D01*
X3782216Y-10522971D02*
X3791740Y-10542019D01*
X3791740Y-10542019D02*
X3801263Y-10580114D01*
X3801263Y-10580114D02*
X3801263Y-10627733D01*
X3801263Y-10627733D02*
X3791740Y-10665828D01*
X3791740Y-10665828D02*
X3782216Y-10684876D01*
X3782216Y-10684876D02*
X3772692Y-10694400D01*
X3772692Y-10694400D02*
X3753644Y-10703923D01*
X3753644Y-10703923D02*
X3734597Y-10703923D01*
X3734597Y-10703923D02*
X3715549Y-10694400D01*
X3715549Y-10694400D02*
X3706025Y-10684876D01*
X3706025Y-10684876D02*
X3696501Y-10665828D01*
X3696501Y-10665828D02*
X3686978Y-10627733D01*
X3686978Y-10627733D02*
X3686978Y-10580114D01*
X3686978Y-10580114D02*
X3696501Y-10542019D01*
X3696501Y-10542019D02*
X3706025Y-10522971D01*
X3706025Y-10522971D02*
X3715549Y-10513447D01*
X3715549Y-10513447D02*
X3734597Y-10503923D01*
X3925073Y-10503923D02*
X3944121Y-10503923D01*
X3944121Y-10503923D02*
X3963168Y-10513447D01*
X3963168Y-10513447D02*
X3972692Y-10522971D01*
X3972692Y-10522971D02*
X3982216Y-10542019D01*
X3982216Y-10542019D02*
X3991740Y-10580114D01*
X3991740Y-10580114D02*
X3991740Y-10627733D01*
X3991740Y-10627733D02*
X3982216Y-10665828D01*
X3982216Y-10665828D02*
X3972692Y-10684876D01*
X3972692Y-10684876D02*
X3963168Y-10694400D01*
X3963168Y-10694400D02*
X3944121Y-10703923D01*
X3944121Y-10703923D02*
X3925073Y-10703923D01*
X3925073Y-10703923D02*
X3906025Y-10694400D01*
X3906025Y-10694400D02*
X3896501Y-10684876D01*
X3896501Y-10684876D02*
X3886978Y-10665828D01*
X3886978Y-10665828D02*
X3877454Y-10627733D01*
X3877454Y-10627733D02*
X3877454Y-10580114D01*
X3877454Y-10580114D02*
X3886978Y-10542019D01*
X3886978Y-10542019D02*
X3896501Y-10522971D01*
X3896501Y-10522971D02*
X3906025Y-10513447D01*
X3906025Y-10513447D02*
X3925073Y-10503923D01*
X4077454Y-10703923D02*
X4077454Y-10570590D01*
X4077454Y-10589638D02*
X4086978Y-10580114D01*
X4086978Y-10580114D02*
X4106025Y-10570590D01*
X4106025Y-10570590D02*
X4134597Y-10570590D01*
X4134597Y-10570590D02*
X4153644Y-10580114D01*
X4153644Y-10580114D02*
X4163168Y-10599162D01*
X4163168Y-10599162D02*
X4163168Y-10703923D01*
X4163168Y-10599162D02*
X4172692Y-10580114D01*
X4172692Y-10580114D02*
X4191740Y-10570590D01*
X4191740Y-10570590D02*
X4220311Y-10570590D01*
X4220311Y-10570590D02*
X4239359Y-10580114D01*
X4239359Y-10580114D02*
X4248883Y-10599162D01*
X4248883Y-10599162D02*
X4248883Y-10703923D01*
X4344121Y-10703923D02*
X4344121Y-10570590D01*
X4344121Y-10589638D02*
X4353644Y-10580114D01*
X4353644Y-10580114D02*
X4372692Y-10570590D01*
X4372692Y-10570590D02*
X4401264Y-10570590D01*
X4401264Y-10570590D02*
X4420311Y-10580114D01*
X4420311Y-10580114D02*
X4429835Y-10599162D01*
X4429835Y-10599162D02*
X4429835Y-10703923D01*
X4429835Y-10599162D02*
X4439359Y-10580114D01*
X4439359Y-10580114D02*
X4458406Y-10570590D01*
X4458406Y-10570590D02*
X4486978Y-10570590D01*
X4486978Y-10570590D02*
X4506025Y-10580114D01*
X4506025Y-10580114D02*
X4515549Y-10599162D01*
X4515549Y-10599162D02*
X4515549Y-10703923D01*
X4906025Y-10494400D02*
X4734597Y-10751542D01*
X5163168Y-10503923D02*
X5182216Y-10503923D01*
X5182216Y-10503923D02*
X5201264Y-10513447D01*
X5201264Y-10513447D02*
X5210787Y-10522971D01*
X5210787Y-10522971D02*
X5220311Y-10542019D01*
X5220311Y-10542019D02*
X5229835Y-10580114D01*
X5229835Y-10580114D02*
X5229835Y-10627733D01*
X5229835Y-10627733D02*
X5220311Y-10665828D01*
X5220311Y-10665828D02*
X5210787Y-10684876D01*
X5210787Y-10684876D02*
X5201264Y-10694400D01*
X5201264Y-10694400D02*
X5182216Y-10703923D01*
X5182216Y-10703923D02*
X5163168Y-10703923D01*
X5163168Y-10703923D02*
X5144121Y-10694400D01*
X5144121Y-10694400D02*
X5134597Y-10684876D01*
X5134597Y-10684876D02*
X5125073Y-10665828D01*
X5125073Y-10665828D02*
X5115549Y-10627733D01*
X5115549Y-10627733D02*
X5115549Y-10580114D01*
X5115549Y-10580114D02*
X5125073Y-10542019D01*
X5125073Y-10542019D02*
X5134597Y-10522971D01*
X5134597Y-10522971D02*
X5144121Y-10513447D01*
X5144121Y-10513447D02*
X5163168Y-10503923D01*
X5315549Y-10684876D02*
X5325073Y-10694400D01*
X5325073Y-10694400D02*
X5315549Y-10703923D01*
X5315549Y-10703923D02*
X5306026Y-10694400D01*
X5306026Y-10694400D02*
X5315549Y-10684876D01*
X5315549Y-10684876D02*
X5315549Y-10703923D01*
X5515549Y-10703923D02*
X5401264Y-10703923D01*
X5458406Y-10703923D02*
X5458406Y-10503923D01*
X5458406Y-10503923D02*
X5439359Y-10532495D01*
X5439359Y-10532495D02*
X5420311Y-10551542D01*
X5420311Y-10551542D02*
X5401264Y-10561066D01*
X5610787Y-10703923D02*
X5648883Y-10703923D01*
X5648883Y-10703923D02*
X5667930Y-10694400D01*
X5667930Y-10694400D02*
X5677454Y-10684876D01*
X5677454Y-10684876D02*
X5696502Y-10656304D01*
X5696502Y-10656304D02*
X5706025Y-10618209D01*
X5706025Y-10618209D02*
X5706025Y-10542019D01*
X5706025Y-10542019D02*
X5696502Y-10522971D01*
X5696502Y-10522971D02*
X5686978Y-10513447D01*
X5686978Y-10513447D02*
X5667930Y-10503923D01*
X5667930Y-10503923D02*
X5629835Y-10503923D01*
X5629835Y-10503923D02*
X5610787Y-10513447D01*
X5610787Y-10513447D02*
X5601264Y-10522971D01*
X5601264Y-10522971D02*
X5591740Y-10542019D01*
X5591740Y-10542019D02*
X5591740Y-10589638D01*
X5591740Y-10589638D02*
X5601264Y-10608685D01*
X5601264Y-10608685D02*
X5610787Y-10618209D01*
X5610787Y-10618209D02*
X5629835Y-10627733D01*
X5629835Y-10627733D02*
X5667930Y-10627733D01*
X5667930Y-10627733D02*
X5686978Y-10618209D01*
X5686978Y-10618209D02*
X5696502Y-10608685D01*
X5696502Y-10608685D02*
X5706025Y-10589638D01*
X5877454Y-10503923D02*
X5839359Y-10503923D01*
X5839359Y-10503923D02*
X5820311Y-10513447D01*
X5820311Y-10513447D02*
X5810787Y-10522971D01*
X5810787Y-10522971D02*
X5791740Y-10551542D01*
X5791740Y-10551542D02*
X5782216Y-10589638D01*
X5782216Y-10589638D02*
X5782216Y-10665828D01*
X5782216Y-10665828D02*
X5791740Y-10684876D01*
X5791740Y-10684876D02*
X5801264Y-10694400D01*
X5801264Y-10694400D02*
X5820311Y-10703923D01*
X5820311Y-10703923D02*
X5858406Y-10703923D01*
X5858406Y-10703923D02*
X5877454Y-10694400D01*
X5877454Y-10694400D02*
X5886978Y-10684876D01*
X5886978Y-10684876D02*
X5896502Y-10665828D01*
X5896502Y-10665828D02*
X5896502Y-10618209D01*
X5896502Y-10618209D02*
X5886978Y-10599162D01*
X5886978Y-10599162D02*
X5877454Y-10589638D01*
X5877454Y-10589638D02*
X5858406Y-10580114D01*
X5858406Y-10580114D02*
X5820311Y-10580114D01*
X5820311Y-10580114D02*
X5801264Y-10589638D01*
X5801264Y-10589638D02*
X5791740Y-10599162D01*
X5791740Y-10599162D02*
X5782216Y-10618209D01*
X5991740Y-10703923D02*
X6029835Y-10703923D01*
X6029835Y-10703923D02*
X6048883Y-10694400D01*
X6048883Y-10694400D02*
X6058406Y-10684876D01*
X6058406Y-10684876D02*
X6077454Y-10656304D01*
X6077454Y-10656304D02*
X6086978Y-10618209D01*
X6086978Y-10618209D02*
X6086978Y-10542019D01*
X6086978Y-10542019D02*
X6077454Y-10522971D01*
X6077454Y-10522971D02*
X6067930Y-10513447D01*
X6067930Y-10513447D02*
X6048883Y-10503923D01*
X6048883Y-10503923D02*
X6010787Y-10503923D01*
X6010787Y-10503923D02*
X5991740Y-10513447D01*
X5991740Y-10513447D02*
X5982216Y-10522971D01*
X5982216Y-10522971D02*
X5972692Y-10542019D01*
X5972692Y-10542019D02*
X5972692Y-10589638D01*
X5972692Y-10589638D02*
X5982216Y-10608685D01*
X5982216Y-10608685D02*
X5991740Y-10618209D01*
X5991740Y-10618209D02*
X6010787Y-10627733D01*
X6010787Y-10627733D02*
X6048883Y-10627733D01*
X6048883Y-10627733D02*
X6067930Y-10618209D01*
X6067930Y-10618209D02*
X6077454Y-10608685D01*
X6077454Y-10608685D02*
X6086978Y-10589638D01*
X6163168Y-10503923D02*
X6163168Y-10542019D01*
X6239359Y-10503923D02*
X6239359Y-10542019D01*
X6534597Y-10780114D02*
X6525073Y-10770590D01*
X6525073Y-10770590D02*
X6506026Y-10742019D01*
X6506026Y-10742019D02*
X6496502Y-10722971D01*
X6496502Y-10722971D02*
X6486978Y-10694400D01*
X6486978Y-10694400D02*
X6477454Y-10646781D01*
X6477454Y-10646781D02*
X6477454Y-10608685D01*
X6477454Y-10608685D02*
X6486978Y-10561066D01*
X6486978Y-10561066D02*
X6496502Y-10532495D01*
X6496502Y-10532495D02*
X6506026Y-10513447D01*
X6506026Y-10513447D02*
X6525073Y-10484876D01*
X6525073Y-10484876D02*
X6534597Y-10475352D01*
X6715549Y-10703923D02*
X6601264Y-10703923D01*
X6658406Y-10703923D02*
X6658406Y-10503923D01*
X6658406Y-10503923D02*
X6639359Y-10532495D01*
X6639359Y-10532495D02*
X6620311Y-10551542D01*
X6620311Y-10551542D02*
X6601264Y-10561066D01*
X6953645Y-10703923D02*
X6953645Y-10503923D01*
X7039359Y-10703923D02*
X7039359Y-10599162D01*
X7039359Y-10599162D02*
X7029835Y-10580114D01*
X7029835Y-10580114D02*
X7010788Y-10570590D01*
X7010788Y-10570590D02*
X6982216Y-10570590D01*
X6982216Y-10570590D02*
X6963168Y-10580114D01*
X6963168Y-10580114D02*
X6953645Y-10589638D01*
X7163168Y-10703923D02*
X7144121Y-10694400D01*
X7144121Y-10694400D02*
X7134597Y-10684876D01*
X7134597Y-10684876D02*
X7125073Y-10665828D01*
X7125073Y-10665828D02*
X7125073Y-10608685D01*
X7125073Y-10608685D02*
X7134597Y-10589638D01*
X7134597Y-10589638D02*
X7144121Y-10580114D01*
X7144121Y-10580114D02*
X7163168Y-10570590D01*
X7163168Y-10570590D02*
X7191740Y-10570590D01*
X7191740Y-10570590D02*
X7210788Y-10580114D01*
X7210788Y-10580114D02*
X7220311Y-10589638D01*
X7220311Y-10589638D02*
X7229835Y-10608685D01*
X7229835Y-10608685D02*
X7229835Y-10665828D01*
X7229835Y-10665828D02*
X7220311Y-10684876D01*
X7220311Y-10684876D02*
X7210788Y-10694400D01*
X7210788Y-10694400D02*
X7191740Y-10703923D01*
X7191740Y-10703923D02*
X7163168Y-10703923D01*
X7344121Y-10703923D02*
X7325073Y-10694400D01*
X7325073Y-10694400D02*
X7315549Y-10675352D01*
X7315549Y-10675352D02*
X7315549Y-10503923D01*
X7496502Y-10694400D02*
X7477454Y-10703923D01*
X7477454Y-10703923D02*
X7439359Y-10703923D01*
X7439359Y-10703923D02*
X7420311Y-10694400D01*
X7420311Y-10694400D02*
X7410788Y-10675352D01*
X7410788Y-10675352D02*
X7410788Y-10599162D01*
X7410788Y-10599162D02*
X7420311Y-10580114D01*
X7420311Y-10580114D02*
X7439359Y-10570590D01*
X7439359Y-10570590D02*
X7477454Y-10570590D01*
X7477454Y-10570590D02*
X7496502Y-10580114D01*
X7496502Y-10580114D02*
X7506026Y-10599162D01*
X7506026Y-10599162D02*
X7506026Y-10618209D01*
X7506026Y-10618209D02*
X7410788Y-10637257D01*
X7572692Y-10780114D02*
X7582216Y-10770590D01*
X7582216Y-10770590D02*
X7601264Y-10742019D01*
X7601264Y-10742019D02*
X7610788Y-10722971D01*
X7610788Y-10722971D02*
X7620311Y-10694400D01*
X7620311Y-10694400D02*
X7629835Y-10646781D01*
X7629835Y-10646781D02*
X7629835Y-10608685D01*
X7629835Y-10608685D02*
X7620311Y-10561066D01*
X7620311Y-10561066D02*
X7610788Y-10532495D01*
X7610788Y-10532495D02*
X7601264Y-10513447D01*
X7601264Y-10513447D02*
X7582216Y-10484876D01*
X7582216Y-10484876D02*
X7572692Y-10475352D01*
M02*
