%TF.GenerationSoftware,KiCad,Pcbnew,8.0.8*%
%TF.CreationDate,2025-06-13T17:00:40+01:00*%
%TF.ProjectId,AutoDiming_Keychain,4175746f-4469-46d6-996e-675f4b657963,rev?*%
%TF.SameCoordinates,Original*%
%TF.FileFunction,Copper,L1,Top*%
%TF.FilePolarity,Positive*%
%FSLAX46Y46*%
G04 Gerber Fmt 4.6, Leading zero omitted, Abs format (unit mm)*
G04 Created by KiCad (PCBNEW 8.0.8) date 2025-06-13 17:00:40*
%MOMM*%
%LPD*%
G01*
G04 APERTURE LIST*
%TA.AperFunction,Conductor*%
%ADD10C,0.200000*%
%TD*%
%TA.AperFunction,ComponentPad*%
%ADD11C,1.500000*%
%TD*%
%TA.AperFunction,SMDPad,CuDef*%
%ADD12R,1.270000X5.080000*%
%TD*%
%TA.AperFunction,SMDPad,CuDef*%
%ADD13C,17.800000*%
%TD*%
%TA.AperFunction,ComponentPad*%
%ADD14R,1.800000X1.800000*%
%TD*%
%TA.AperFunction,ComponentPad*%
%ADD15C,1.800000*%
%TD*%
%TA.AperFunction,ComponentPad*%
%ADD16C,1.600000*%
%TD*%
%TA.AperFunction,ComponentPad*%
%ADD17O,1.600000X1.600000*%
%TD*%
%TA.AperFunction,ComponentPad*%
%ADD18R,1.050000X1.500000*%
%TD*%
%TA.AperFunction,ComponentPad*%
%ADD19O,1.050000X1.500000*%
%TD*%
%TA.AperFunction,ViaPad*%
%ADD20C,5.500000*%
%TD*%
G04 APERTURE END LIST*
D10*
%TO.N,/VCC*%
X63000000Y-74000000D02*
G75*
G02*
X60942914Y-75392715I-1500000J0D01*
G01*
%TO.N,Net-(D1-A)*%
X58500000Y-39000001D02*
X44500000Y-39500000D01*
%TO.N,/VCC*%
X38500000Y-76500000D02*
X36500000Y-76500000D01*
%TO.N,Net-(D1-A)*%
X58500000Y-39000001D02*
G75*
G02*
X60740079Y-41500000I-275000J-2499999D01*
G01*
%TO.N,/GND*%
X49500000Y-73000000D02*
X50000000Y-55000000D01*
%TO.N,/VCC*%
X36500000Y-76500000D02*
G75*
G02*
X35792893Y-74792893I0J1000000D01*
G01*
%TO.N,Net-(D1-A)*%
X40754683Y-42095506D02*
G75*
G02*
X44500000Y-39500000I3745317J-1404494D01*
G01*
%TO.N,/VCC*%
X54500000Y-61620000D02*
X63000000Y-74000000D01*
%TO.N,/LED Control*%
X47600000Y-50000000D02*
X49500000Y-43000000D01*
%TO.N,/GND*%
X50251925Y-54167950D02*
X51000000Y-50000000D01*
%TO.N,/LED Control*%
X44000000Y-54000000D02*
G75*
G02*
X47601985Y-50019851I4000000J0D01*
G01*
%TO.N,/GND*%
X50000000Y-55000000D02*
G75*
G02*
X50251925Y-54167950I1500000J0D01*
G01*
%TO.N,/VCC*%
X35792893Y-74792893D02*
X44000000Y-62310000D01*
%TD*%
D11*
%TO.P,R5,1*%
%TO.N,/LED Control*%
X47600000Y-50000000D03*
%TO.P,R5,2*%
%TO.N,/GND*%
X51000000Y-50000000D03*
%TD*%
D12*
%TO.P,BT1,1,+*%
%TO.N,/VCC*%
X38515000Y-76500000D03*
X60485000Y-76500000D03*
D13*
%TO.P,BT1,2,-*%
%TO.N,/GND*%
X49500000Y-76500000D03*
%TD*%
D14*
%TO.P,D2,1,K*%
%TO.N,Net-(D1-K)*%
X58225000Y-41500000D03*
D15*
%TO.P,D2,2,A*%
%TO.N,Net-(D1-A)*%
X60765000Y-41500000D03*
%TD*%
D16*
%TO.P,R2,1*%
%TO.N,/VCC*%
X54500000Y-61620000D03*
D17*
%TO.P,R2,2*%
%TO.N,Net-(D1-A)*%
X54500000Y-54000000D03*
%TD*%
D18*
%TO.P,Q1,1,E*%
%TO.N,/GND*%
X48230000Y-42860000D03*
D19*
%TO.P,Q1,2,B*%
%TO.N,/LED Control*%
X49500000Y-42860000D03*
%TO.P,Q1,3,C*%
%TO.N,Net-(D1-K)*%
X50770000Y-42860000D03*
%TD*%
D14*
%TO.P,D1,1,K*%
%TO.N,Net-(D1-K)*%
X37960000Y-42000000D03*
D15*
%TO.P,D1,2,A*%
%TO.N,Net-(D1-A)*%
X40500000Y-42000000D03*
%TD*%
D16*
%TO.P,R1,1*%
%TO.N,/VCC*%
X44000000Y-62310000D03*
D17*
%TO.P,R1,2*%
%TO.N,/LED Control*%
X44000000Y-54690000D03*
%TD*%
D20*
%TO.N,Net-(D1-K)*%
X49500000Y-36000000D03*
%TD*%
M02*
