%TF.GenerationSoftware,KiCad,Pcbnew,8.0.8*%
%TF.CreationDate,2025-06-13T17:00:37+01:00*%
%TF.ProjectId,AutoDiming_Keychain,4175746f-4469-46d6-996e-675f4b657963,rev?*%
%TF.SameCoordinates,Original*%
%TF.FileFunction,Drillmap*%
%TF.FilePolarity,Positive*%
%FSLAX45Y45*%
G04 Gerber Fmt 4.5, Leading zero omitted, Abs format (unit mm)*
G04 Created by KiCad (PCBNEW 8.0.8) date 2025-06-13 17:00:37*
%MOMM*%
%LPD*%
G01*
G04 APERTURE LIST*
%ADD10C,0.100000*%
%ADD11C,0.200000*%
G04 APERTURE END LIST*
D10*
X4134127Y-2781184D02*
X4149743Y-2784931D01*
X4166361Y-2791030D01*
X4183883Y-2799319D01*
X4202210Y-2809637D01*
X4221244Y-2821821D01*
X4240887Y-2835709D01*
X4281607Y-2867950D01*
X4323584Y-2905063D01*
X4366033Y-2945751D01*
X4408167Y-2988718D01*
X4449202Y-3032667D01*
X4488352Y-3076301D01*
X4524830Y-3118324D01*
X4586632Y-3192351D01*
X4643615Y-3264020D01*
X5233669Y-3264020D01*
X5290669Y-3192351D01*
X5352489Y-3118324D01*
X5428141Y-3032667D01*
X5469189Y-2988718D01*
X5511337Y-2945751D01*
X5553800Y-2905063D01*
X5595792Y-2867950D01*
X5636527Y-2835709D01*
X5656177Y-2821821D01*
X5675219Y-2809637D01*
X5693553Y-2799319D01*
X5711082Y-2791030D01*
X5727707Y-2784931D01*
X5743331Y-2781184D01*
X5758864Y-2780749D01*
X5775253Y-2784295D01*
X5792409Y-2791564D01*
X5810244Y-2802295D01*
X5828669Y-2816228D01*
X5847596Y-2833102D01*
X5866936Y-2852657D01*
X5886602Y-2874633D01*
X5926553Y-2924807D01*
X5966744Y-2981542D01*
X6006464Y-3042755D01*
X6045009Y-3106364D01*
X6081668Y-3170288D01*
X6115736Y-3232444D01*
X6173264Y-3343123D01*
X6226080Y-3451655D01*
X6267776Y-3484813D01*
X6373586Y-3581144D01*
X6441498Y-3651527D01*
X6514595Y-3735936D01*
X6589263Y-3833781D01*
X6661887Y-3944475D01*
X6728853Y-4067426D01*
X6759085Y-4133315D01*
X6786546Y-4202048D01*
X6810786Y-4273550D01*
X6831352Y-4347749D01*
X6847793Y-4424571D01*
X6859657Y-4503942D01*
X6866491Y-4585788D01*
X6867845Y-4670037D01*
X6863266Y-4756613D01*
X6852302Y-4845444D01*
X6834503Y-4936456D01*
X6809415Y-5029576D01*
X6776587Y-5124729D01*
X6735568Y-5221842D01*
X6699618Y-5292976D01*
X6659700Y-5359618D01*
X6616070Y-5421916D01*
X6568986Y-5480017D01*
X6518707Y-5534069D01*
X6465488Y-5584221D01*
X6409589Y-5630620D01*
X6351267Y-5673415D01*
X6290779Y-5712754D01*
X6228383Y-5748785D01*
X6164336Y-5781655D01*
X6098897Y-5811513D01*
X6032322Y-5838507D01*
X5964869Y-5862785D01*
X5896796Y-5884495D01*
X5828361Y-5903784D01*
X5847300Y-5964295D01*
X6126079Y-6568964D01*
X6254202Y-6836085D01*
X6391923Y-7114545D01*
X6532358Y-7386824D01*
X6668620Y-7635399D01*
X6688761Y-7672181D01*
X6707475Y-7709526D01*
X6724780Y-7747382D01*
X6740695Y-7785698D01*
X6755239Y-7824419D01*
X6768431Y-7863493D01*
X6780289Y-7902868D01*
X6790833Y-7942491D01*
X6800080Y-7982308D01*
X6808051Y-8022268D01*
X6814763Y-8062318D01*
X6820236Y-8102404D01*
X6824488Y-8142475D01*
X6827539Y-8182477D01*
X6829407Y-8222358D01*
X6830111Y-8262065D01*
X6817845Y-8334668D01*
X6831549Y-8329622D01*
X6845270Y-8324229D01*
X6859009Y-8318457D01*
X6872770Y-8312276D01*
X6886555Y-8305652D01*
X6900366Y-8298555D01*
X6914206Y-8290953D01*
X6928077Y-8282814D01*
X6944977Y-8272195D01*
X6961854Y-8260884D01*
X6978692Y-8248888D01*
X6995473Y-8236216D01*
X7012180Y-8222876D01*
X7028797Y-8208878D01*
X7045306Y-8194228D01*
X7061690Y-8178936D01*
X7077933Y-8163011D01*
X7094018Y-8146460D01*
X7109926Y-8129292D01*
X7125643Y-8111516D01*
X7141150Y-8093139D01*
X7156430Y-8074171D01*
X7171467Y-8054620D01*
X7186244Y-8034494D01*
X7215116Y-7992653D01*
X7242693Y-7948731D01*
X7268895Y-7902857D01*
X7293642Y-7855161D01*
X7316855Y-7805771D01*
X7338455Y-7754817D01*
X7358361Y-7702428D01*
X7376494Y-7648732D01*
X7392775Y-7593859D01*
X7407125Y-7537937D01*
X7419462Y-7481097D01*
X7429709Y-7423467D01*
X7437785Y-7365175D01*
X7443611Y-7306352D01*
X7447107Y-7247125D01*
X7448194Y-7187625D01*
X7447776Y-7152379D01*
X7446516Y-7117110D01*
X7444404Y-7081836D01*
X7441430Y-7046576D01*
X7437583Y-7011350D01*
X7432854Y-6976176D01*
X7427232Y-6941072D01*
X7420707Y-6906058D01*
X7413269Y-6871152D01*
X7404908Y-6836374D01*
X7395613Y-6801741D01*
X7385375Y-6767274D01*
X7374184Y-6732990D01*
X7362029Y-6698909D01*
X7348900Y-6665049D01*
X7334787Y-6631429D01*
X7313890Y-6582160D01*
X7294482Y-6533697D01*
X7276543Y-6486030D01*
X7260054Y-6439147D01*
X7244994Y-6393037D01*
X7231344Y-6347689D01*
X7219085Y-6303093D01*
X7208196Y-6259237D01*
X7198659Y-6216110D01*
X7190452Y-6173701D01*
X7183558Y-6131999D01*
X7177956Y-6090993D01*
X7173626Y-6050673D01*
X7170549Y-6011026D01*
X7168705Y-5972043D01*
X7168075Y-5933711D01*
X7168437Y-5902650D01*
X7169640Y-5872056D01*
X7171663Y-5841941D01*
X7174486Y-5812317D01*
X7178086Y-5783194D01*
X7182443Y-5754584D01*
X7187536Y-5726499D01*
X7193345Y-5698950D01*
X7199847Y-5671948D01*
X7207023Y-5645505D01*
X7214851Y-5619632D01*
X7223310Y-5594341D01*
X7232379Y-5569643D01*
X7242038Y-5545549D01*
X7252265Y-5522071D01*
X7263040Y-5499220D01*
X7274272Y-5476990D01*
X7285956Y-5455424D01*
X7298059Y-5434518D01*
X7310548Y-5414268D01*
X7323390Y-5394668D01*
X7336550Y-5375715D01*
X7349996Y-5357403D01*
X7363694Y-5339729D01*
X7377611Y-5322687D01*
X7391713Y-5306274D01*
X7405968Y-5290485D01*
X7420341Y-5275315D01*
X7434800Y-5260760D01*
X7449312Y-5246815D01*
X7463841Y-5233476D01*
X7478357Y-5220738D01*
X7492928Y-5208580D01*
X7507410Y-5196963D01*
X7521783Y-5185875D01*
X7536027Y-5175304D01*
X7564047Y-5155670D01*
X7591311Y-5137968D01*
X7617658Y-5122107D01*
X7642930Y-5107995D01*
X7666966Y-5095541D01*
X7689607Y-5084651D01*
X7710693Y-5075236D01*
X7730064Y-5067202D01*
X7747561Y-5060458D01*
X7763023Y-5054912D01*
X7787207Y-5047048D01*
X7801338Y-5042876D01*
X7814524Y-5039741D01*
X7827710Y-5037304D01*
X7840877Y-5035552D01*
X7854004Y-5034474D01*
X7867072Y-5034059D01*
X7880059Y-5034293D01*
X7892947Y-5035166D01*
X7905713Y-5036665D01*
X7918339Y-5038779D01*
X7930803Y-5041497D01*
X7943086Y-5044806D01*
X7955168Y-5048695D01*
X7967028Y-5053151D01*
X7978645Y-5058164D01*
X7990001Y-5063721D01*
X8001073Y-5069810D01*
X8011843Y-5076421D01*
X8022290Y-5083540D01*
X8032393Y-5091157D01*
X8042133Y-5099259D01*
X8051489Y-5107835D01*
X8060441Y-5116873D01*
X8068968Y-5126362D01*
X8077051Y-5136288D01*
X8084669Y-5146642D01*
X8091802Y-5157410D01*
X8098430Y-5168582D01*
X8104531Y-5180145D01*
X8110088Y-5192088D01*
X8115078Y-5204398D01*
X8119481Y-5217065D01*
X8123278Y-5230076D01*
X8126380Y-5243117D01*
X8128798Y-5256156D01*
X8130544Y-5269175D01*
X8131630Y-5282154D01*
X8132066Y-5295073D01*
X8131865Y-5307914D01*
X8131037Y-5320657D01*
X8129594Y-5333283D01*
X8127549Y-5345771D01*
X8124911Y-5358103D01*
X8121693Y-5370259D01*
X8117906Y-5382219D01*
X8113562Y-5393965D01*
X8108672Y-5405476D01*
X8103248Y-5416734D01*
X8097300Y-5427719D01*
X8090841Y-5438410D01*
X8083882Y-5448790D01*
X8076435Y-5458839D01*
X8068510Y-5468536D01*
X8060120Y-5477863D01*
X8051276Y-5486801D01*
X8041989Y-5495328D01*
X8032271Y-5503428D01*
X8022133Y-5511079D01*
X8011587Y-5518262D01*
X8000644Y-5524959D01*
X7989316Y-5531148D01*
X7977615Y-5536812D01*
X7965551Y-5541931D01*
X7953136Y-5546484D01*
X7940382Y-5550454D01*
X7940468Y-5550801D01*
X7934899Y-5552686D01*
X7928959Y-5554915D01*
X7925334Y-5556358D01*
X7921308Y-5558027D01*
X7916908Y-5559929D01*
X7912162Y-5562071D01*
X7907095Y-5564458D01*
X7901735Y-5567098D01*
X7890203Y-5573049D01*
X7877910Y-5579975D01*
X7865035Y-5587880D01*
X7858435Y-5592200D01*
X7851757Y-5596766D01*
X7845023Y-5601577D01*
X7838255Y-5606636D01*
X7831475Y-5611941D01*
X7824707Y-5617493D01*
X7817971Y-5623293D01*
X7811291Y-5629340D01*
X7804690Y-5635636D01*
X7798188Y-5642181D01*
X7789634Y-5651331D01*
X7781276Y-5660935D01*
X7773136Y-5671030D01*
X7769153Y-5676273D01*
X7765232Y-5681652D01*
X7761375Y-5687171D01*
X7757585Y-5692836D01*
X7753865Y-5698651D01*
X7750216Y-5704619D01*
X7746641Y-5710747D01*
X7743143Y-5717037D01*
X7739724Y-5723496D01*
X7736387Y-5730126D01*
X7727992Y-5748826D01*
X7720200Y-5769057D01*
X7716579Y-5779810D01*
X7713166Y-5791019D01*
X7709980Y-5802711D01*
X7707042Y-5814909D01*
X7704369Y-5827638D01*
X7701983Y-5840924D01*
X7699900Y-5854790D01*
X7698141Y-5869262D01*
X7696726Y-5884364D01*
X7695672Y-5900121D01*
X7695000Y-5916558D01*
X7694728Y-5933698D01*
X7696110Y-5978127D01*
X7700660Y-6027072D01*
X7704252Y-6053269D01*
X7708791Y-6080631D01*
X7714328Y-6109170D01*
X7720914Y-6138898D01*
X7728601Y-6169828D01*
X7737440Y-6201972D01*
X7747484Y-6235340D01*
X7758783Y-6269947D01*
X7771388Y-6305802D01*
X7785352Y-6342920D01*
X7800726Y-6381310D01*
X7817560Y-6420987D01*
X7837306Y-6468079D01*
X7855643Y-6515415D01*
X7872590Y-6562967D01*
X7888164Y-6610706D01*
X7902386Y-6658603D01*
X7915273Y-6706629D01*
X7926844Y-6754754D01*
X7937117Y-6802951D01*
X7946113Y-6851190D01*
X7953848Y-6899442D01*
X7960342Y-6947678D01*
X7965614Y-6995870D01*
X7969681Y-7043988D01*
X7972564Y-7092004D01*
X7974279Y-7139889D01*
X7974847Y-7187613D01*
X7973907Y-7248003D01*
X7971210Y-7308053D01*
X7966784Y-7367722D01*
X7960660Y-7426964D01*
X7952868Y-7485738D01*
X7943436Y-7543999D01*
X7932396Y-7601705D01*
X7919776Y-7658811D01*
X7905606Y-7715276D01*
X7889917Y-7771056D01*
X7872736Y-7826106D01*
X7854096Y-7880385D01*
X7834024Y-7933849D01*
X7812551Y-7986454D01*
X7789707Y-8038157D01*
X7765520Y-8088916D01*
X7739921Y-8138618D01*
X7713011Y-8187339D01*
X7684798Y-8235017D01*
X7655286Y-8281593D01*
X7624481Y-8327006D01*
X7592391Y-8371195D01*
X7559020Y-8414102D01*
X7524374Y-8455664D01*
X7488460Y-8495822D01*
X7451283Y-8534515D01*
X7412849Y-8571684D01*
X7373164Y-8607268D01*
X7332234Y-8641207D01*
X7290065Y-8673440D01*
X7246662Y-8703907D01*
X7202033Y-8732548D01*
X7171742Y-8750441D01*
X7140867Y-8767421D01*
X7109431Y-8783455D01*
X7077456Y-8798510D01*
X7044965Y-8812553D01*
X7011980Y-8825550D01*
X6978524Y-8837470D01*
X6944620Y-8848278D01*
X6910291Y-8857943D01*
X6875558Y-8866429D01*
X6840445Y-8873706D01*
X6804974Y-8879739D01*
X6769167Y-8884496D01*
X6733049Y-8887943D01*
X6696640Y-8890048D01*
X6659963Y-8890777D01*
X6641350Y-8917539D01*
X6621911Y-8943011D01*
X6601664Y-8967133D01*
X6580627Y-8989844D01*
X6558816Y-9011085D01*
X6536251Y-9030795D01*
X6512948Y-9048914D01*
X6488926Y-9065382D01*
X6464201Y-9080138D01*
X6438792Y-9093121D01*
X6412717Y-9104273D01*
X6385993Y-9113532D01*
X6358637Y-9120839D01*
X6330668Y-9126133D01*
X6302103Y-9129353D01*
X6272960Y-9130440D01*
X3604646Y-9130440D01*
X3559957Y-9127898D01*
X3516628Y-9120413D01*
X3474732Y-9108194D01*
X3434341Y-9091450D01*
X3395527Y-9070390D01*
X3358364Y-9045224D01*
X3322923Y-9016161D01*
X3289278Y-8983410D01*
X3257500Y-8947182D01*
X3227662Y-8907684D01*
X3199837Y-8865127D01*
X3174097Y-8819720D01*
X3150515Y-8771672D01*
X3129162Y-8721192D01*
X3093438Y-8613775D01*
X3067505Y-8499144D01*
X3051942Y-8378973D01*
X3047329Y-8254938D01*
X3054248Y-8128712D01*
X3062212Y-8065301D01*
X3073276Y-8001971D01*
X3087513Y-7938930D01*
X3104995Y-7876388D01*
X3125795Y-7814555D01*
X3149985Y-7753640D01*
X3177638Y-7693851D01*
X3208825Y-7635399D01*
X3275207Y-7515664D01*
X3341973Y-7388714D01*
X3408479Y-7256611D01*
X3474082Y-7121417D01*
X3600000Y-6850000D01*
X3714576Y-6590953D01*
X3812658Y-6360767D01*
X3889095Y-6175931D01*
X3956426Y-6008274D01*
X3993025Y-5888443D01*
X3928340Y-5868327D01*
X3864158Y-5845923D01*
X3800700Y-5821105D01*
X3738186Y-5793748D01*
X3676836Y-5763726D01*
X3616870Y-5730915D01*
X3558508Y-5695190D01*
X3501972Y-5656424D01*
X3447480Y-5614494D01*
X3395254Y-5569273D01*
X3345514Y-5520637D01*
X3298479Y-5468460D01*
X3276045Y-5441004D01*
X3254370Y-5412617D01*
X3233482Y-5383282D01*
X3213408Y-5352983D01*
X3194175Y-5321705D01*
X3175812Y-5289433D01*
X3158345Y-5256150D01*
X3141803Y-5221842D01*
X3100784Y-5124729D01*
X3067957Y-5029576D01*
X3042870Y-4936456D01*
X3025072Y-4845444D01*
X3014111Y-4756613D01*
X3009534Y-4670037D01*
X3010890Y-4585788D01*
X3017728Y-4503942D01*
X3029595Y-4424571D01*
X3046039Y-4347749D01*
X3066609Y-4273550D01*
X3090852Y-4202048D01*
X3118318Y-4133315D01*
X3148553Y-4067426D01*
X3181107Y-4004455D01*
X3215527Y-3944475D01*
X3251362Y-3887559D01*
X3288159Y-3833781D01*
X3325468Y-3783216D01*
X3362835Y-3735936D01*
X3435940Y-3651527D01*
X3503858Y-3581144D01*
X3562976Y-3525376D01*
X3609679Y-3484813D01*
X3651378Y-3451655D01*
X3704171Y-3343122D01*
X3761680Y-3232441D01*
X3795738Y-3170284D01*
X3832389Y-3106360D01*
X3870926Y-3042750D01*
X3910643Y-2981537D01*
X3950833Y-2924802D01*
X3990788Y-2874628D01*
X4010457Y-2852652D01*
X4029802Y-2833097D01*
X4048735Y-2816224D01*
X4067168Y-2802292D01*
X4085012Y-2791561D01*
X4102178Y-2784293D01*
X4118580Y-2780748D01*
X4134127Y-2781184D01*
D11*
X3265311Y-9446923D02*
X3265311Y-9246923D01*
X3265311Y-9246923D02*
X3312930Y-9246923D01*
X3312930Y-9246923D02*
X3341501Y-9256447D01*
X3341501Y-9256447D02*
X3360549Y-9275495D01*
X3360549Y-9275495D02*
X3370073Y-9294542D01*
X3370073Y-9294542D02*
X3379597Y-9332638D01*
X3379597Y-9332638D02*
X3379597Y-9361209D01*
X3379597Y-9361209D02*
X3370073Y-9399304D01*
X3370073Y-9399304D02*
X3360549Y-9418352D01*
X3360549Y-9418352D02*
X3341501Y-9437400D01*
X3341501Y-9437400D02*
X3312930Y-9446923D01*
X3312930Y-9446923D02*
X3265311Y-9446923D01*
X3465311Y-9446923D02*
X3465311Y-9313590D01*
X3465311Y-9351685D02*
X3474835Y-9332638D01*
X3474835Y-9332638D02*
X3484359Y-9323114D01*
X3484359Y-9323114D02*
X3503406Y-9313590D01*
X3503406Y-9313590D02*
X3522454Y-9313590D01*
X3589120Y-9446923D02*
X3589120Y-9313590D01*
X3589120Y-9246923D02*
X3579597Y-9256447D01*
X3579597Y-9256447D02*
X3589120Y-9265971D01*
X3589120Y-9265971D02*
X3598644Y-9256447D01*
X3598644Y-9256447D02*
X3589120Y-9246923D01*
X3589120Y-9246923D02*
X3589120Y-9265971D01*
X3712930Y-9446923D02*
X3693882Y-9437400D01*
X3693882Y-9437400D02*
X3684359Y-9418352D01*
X3684359Y-9418352D02*
X3684359Y-9246923D01*
X3817692Y-9446923D02*
X3798644Y-9437400D01*
X3798644Y-9437400D02*
X3789120Y-9418352D01*
X3789120Y-9418352D02*
X3789120Y-9246923D01*
X4046263Y-9446923D02*
X4046263Y-9246923D01*
X4046263Y-9246923D02*
X4112930Y-9389781D01*
X4112930Y-9389781D02*
X4179597Y-9246923D01*
X4179597Y-9246923D02*
X4179597Y-9446923D01*
X4360549Y-9446923D02*
X4360549Y-9342162D01*
X4360549Y-9342162D02*
X4351025Y-9323114D01*
X4351025Y-9323114D02*
X4331978Y-9313590D01*
X4331978Y-9313590D02*
X4293882Y-9313590D01*
X4293882Y-9313590D02*
X4274835Y-9323114D01*
X4360549Y-9437400D02*
X4341502Y-9446923D01*
X4341502Y-9446923D02*
X4293882Y-9446923D01*
X4293882Y-9446923D02*
X4274835Y-9437400D01*
X4274835Y-9437400D02*
X4265311Y-9418352D01*
X4265311Y-9418352D02*
X4265311Y-9399304D01*
X4265311Y-9399304D02*
X4274835Y-9380257D01*
X4274835Y-9380257D02*
X4293882Y-9370733D01*
X4293882Y-9370733D02*
X4341502Y-9370733D01*
X4341502Y-9370733D02*
X4360549Y-9361209D01*
X4455787Y-9313590D02*
X4455787Y-9513590D01*
X4455787Y-9323114D02*
X4474835Y-9313590D01*
X4474835Y-9313590D02*
X4512930Y-9313590D01*
X4512930Y-9313590D02*
X4531978Y-9323114D01*
X4531978Y-9323114D02*
X4541502Y-9332638D01*
X4541502Y-9332638D02*
X4551025Y-9351685D01*
X4551025Y-9351685D02*
X4551025Y-9408828D01*
X4551025Y-9408828D02*
X4541502Y-9427876D01*
X4541502Y-9427876D02*
X4531978Y-9437400D01*
X4531978Y-9437400D02*
X4512930Y-9446923D01*
X4512930Y-9446923D02*
X4474835Y-9446923D01*
X4474835Y-9446923D02*
X4455787Y-9437400D01*
X4636740Y-9427876D02*
X4646263Y-9437400D01*
X4646263Y-9437400D02*
X4636740Y-9446923D01*
X4636740Y-9446923D02*
X4627216Y-9437400D01*
X4627216Y-9437400D02*
X4636740Y-9427876D01*
X4636740Y-9427876D02*
X4636740Y-9446923D01*
X4636740Y-9323114D02*
X4646263Y-9332638D01*
X4646263Y-9332638D02*
X4636740Y-9342162D01*
X4636740Y-9342162D02*
X4627216Y-9332638D01*
X4627216Y-9332638D02*
X4636740Y-9323114D01*
X4636740Y-9323114D02*
X4636740Y-9342162D01*
M02*
